<svg xmlns="http://www.w3.org/2000/svg" xmlns:xlink="http://www.w3.org/1999/xlink" width="250" zoomAndPan="magnify" viewBox="0 0 187.5 187.499992" height="250" preserveAspectRatio="xMidYMid meet" version="1.0"><defs><clipPath id="f214fc316e"><path d="M 56.101562 66.101562 L 130.902344 66.101562 L 130.902344 120 L 56.101562 120 Z M 56.101562 66.101562 " clip-rule="nonzero"/></clipPath><clipPath id="23a78f144a"><path d="M 56.101562 66.101562 L 130.902344 66.101562 L 130.902344 120.707031 L 56.101562 120.707031 Z M 56.101562 66.101562 " clip-rule="nonzero"/></clipPath></defs><g clip-path="url(#f214fc316e)"><path fill="#414042" d="M 130.113281 92.148438 C 130.113281 92.128906 130.117188 92.113281 130.117188 92.097656 L 130.113281 92.097656 C 130.074219 91.535156 129.816406 90.992188 129.289062 90.574219 C 128.292969 89.789062 126.769531 89.804688 125.570312 89.855469 C 113.3125 90.386719 100.976562 89.128906 89.082031 86.128906 C 89.070312 85.320312 89.0625 84.507812 89.050781 83.695312 C 89.019531 81.042969 88.988281 78.363281 88.386719 75.777344 C 87.785156 73.191406 86.566406 70.671875 84.523438 68.96875 C 82.527344 67.304688 79.808594 66.539062 77.234375 66.914062 C 74.664062 67.292969 72.277344 68.804688 70.847656 70.96875 C 68.9375 73.855469 68.800781 77.519531 68.78125 80.976562 C 68.765625 83.160156 68.773438 85.339844 68.800781 87.523438 L 68.410156 87.550781 C 66.175781 87.625 63.832031 87.730469 61.917969 88.882812 C 60.332031 89.84375 59.453125 91.449219 59.539062 92.996094 L 59.453125 93 C 59.320312 94.328125 59.261719 95.636719 59.53125 97.054688 C 59.777344 98.324219 59.828125 99.136719 60.847656 99.929688 C 62.390625 101.132812 64.335938 101.605469 66.296875 101.894531 L 65.964844 101.878906 C 66.3125 103.363281 66.8125 104.808594 67.730469 105.992188 C 65.820312 106.257812 63.910156 106.519531 62 106.785156 C 61.035156 106.917969 60.054688 107.054688 59.179688 107.472656 C 58.304688 107.894531 57.535156 108.644531 57.347656 109.59375 C 57.339844 109.636719 57.332031 109.679688 57.328125 109.71875 C 56.949219 111.980469 56.59375 114.320312 58.015625 116.113281 C 59.289062 117.71875 61.503906 118.171875 63.539062 118.449219 C 75.339844 120.054688 87.203125 120.707031 98.714844 117.664062 C 99.351562 117.496094 100.023438 117.300781 100.484375 116.828125 C 101.320312 115.972656 101.398438 113.226562 101.070312 112.035156 C 101.179688 111.894531 101.265625 111.742188 101.328125 111.566406 C 101.613281 110.777344 101.230469 109.875 100.617188 109.304688 C 100 108.734375 99.191406 108.425781 98.398438 108.148438 C 95.941406 107.277344 93.445312 106.511719 90.921875 105.855469 C 91.53125 104.972656 91.941406 103.941406 92.070312 102.894531 L 91.476562 102.871094 C 97.039062 102.273438 102.546875 101.148438 108.101562 100.425781 C 112.394531 99.867188 116.78125 99.558594 121.039062 100.351562 C 123.46875 100.804688 125.542969 100.628906 127.800781 99.621094 C 130.585938 98.378906 129.972656 96.347656 130.101562 92.53125 C 130.117188 92.402344 130.121094 92.273438 130.117188 92.148438 Z M 130.113281 92.148438 " fill-opacity="1" fill-rule="nonzero"/></g><g clip-path="url(#23a78f144a)"><path fill="#231f20" d="M 130.734375 92.316406 C 130.738281 92.242188 130.738281 92.167969 130.742188 92.097656 C 130.746094 91.996094 130.730469 91.90625 130.703125 91.832031 C 130.601562 91.175781 130.273438 90.570312 129.730469 90.132812 C 128.898438 89.457031 127.828125 89.253906 126.777344 89.21875 C 125.617188 89.175781 124.441406 89.28125 123.28125 89.3125 C 118.171875 89.4375 113.058594 89.257812 107.972656 88.769531 C 102.898438 88.285156 97.855469 87.484375 92.878906 86.386719 C 91.816406 86.152344 90.757812 85.902344 89.703125 85.640625 C 89.6875 83.597656 89.691406 81.542969 89.542969 79.503906 C 89.390625 77.34375 89.042969 75.171875 88.210938 73.160156 C 87.449219 71.320312 86.332031 69.589844 84.746094 68.347656 C 83.113281 67.074219 81.128906 66.328125 79.058594 66.210938 C 77.101562 66.101562 75.125 66.617188 73.453125 67.632812 C 71.777344 68.652344 70.421875 70.152344 69.59375 71.929688 C 68.710938 73.820312 68.375 75.886719 68.238281 77.953125 C 68.175781 78.953125 68.160156 79.953125 68.152344 80.953125 C 68.144531 82.144531 68.144531 83.335938 68.148438 84.527344 C 68.152344 85.328125 68.15625 86.132812 68.167969 86.933594 C 65.980469 87.011719 63.691406 87.152344 61.753906 88.257812 C 60.203125 89.140625 59.058594 90.691406 58.917969 92.488281 C 58.914062 92.5625 58.910156 92.636719 58.90625 92.710938 C 58.863281 92.800781 58.835938 92.898438 58.824219 93 C 58.679688 94.5 58.695312 95.949219 58.96875 97.433594 C 59.171875 98.53125 59.417969 99.554688 60.320312 100.304688 C 61.777344 101.515625 63.59375 102.0625 65.441406 102.382812 C 65.703125 103.40625 66.046875 104.417969 66.558594 105.34375 C 66.589844 105.402344 66.621094 105.460938 66.65625 105.515625 C 65.65625 105.652344 64.65625 105.792969 63.65625 105.929688 C 62.433594 106.097656 61.164062 106.195312 59.96875 106.519531 C 58.890625 106.816406 57.898438 107.375 57.242188 108.296875 C 57.011719 108.617188 56.855469 108.96875 56.769531 109.332031 C 56.757812 109.363281 56.75 109.394531 56.742188 109.429688 C 56.453125 111.171875 56.109375 113.03125 56.625 114.765625 C 56.878906 115.613281 57.34375 116.398438 57.984375 117.007812 C 58.605469 117.597656 59.347656 118.007812 60.140625 118.3125 C 61.824219 118.96875 63.695312 119.101562 65.472656 119.328125 C 67.53125 119.589844 69.59375 119.816406 71.65625 119.992188 C 75.757812 120.347656 79.882812 120.515625 83.996094 120.371094 C 88.140625 120.226562 92.28125 119.757812 96.332031 118.878906 C 97.308594 118.667969 98.285156 118.445312 99.246094 118.164062 C 100.03125 117.9375 100.835938 117.566406 101.257812 116.832031 C 101.605469 116.21875 101.734375 115.503906 101.816406 114.8125 C 101.894531 114.136719 101.902344 113.445312 101.828125 112.769531 C 101.804688 112.558594 101.777344 112.347656 101.734375 112.136719 C 101.976562 111.730469 102.09375 111.253906 102.03125 110.734375 C 101.882812 109.53125 101.007812 108.632812 99.957031 108.109375 C 98.867188 107.570312 97.664062 107.222656 96.511719 106.847656 C 95.3125 106.453125 94.105469 106.085938 92.890625 105.742188 C 92.558594 105.648438 92.222656 105.558594 91.890625 105.46875 C 92.164062 104.953125 92.378906 104.40625 92.523438 103.839844 C 92.566406 103.683594 92.597656 103.523438 92.625 103.363281 C 96.761719 102.871094 100.867188 102.121094 104.984375 101.496094 C 108.050781 101.027344 111.136719 100.609375 114.238281 100.515625 C 115.765625 100.46875 117.292969 100.503906 118.808594 100.65625 C 120.265625 100.804688 121.699219 101.175781 123.167969 101.207031 C 124.554688 101.242188 125.949219 101.007812 127.246094 100.519531 C 128.175781 100.171875 129.132812 99.75 129.769531 98.957031 C 130.894531 97.558594 130.703125 95.589844 130.703125 93.90625 C 130.707031 93.417969 130.710938 92.929688 130.730469 92.4375 C 130.730469 92.398438 130.734375 92.359375 130.734375 92.316406 Z M 86.984375 73.445312 C 86.976562 73.429688 86.976562 73.425781 86.984375 73.445312 Z M 85.464844 70.835938 C 85.464844 70.832031 85.460938 70.828125 85.460938 70.828125 C 85.464844 70.832031 85.464844 70.832031 85.464844 70.835938 Z M 83.859375 69.230469 C 83.859375 69.234375 83.863281 69.234375 83.863281 69.238281 C 83.933594 69.289062 83.886719 69.253906 83.859375 69.230469 Z M 81.953125 68.132812 C 81.960938 68.136719 81.96875 68.136719 81.976562 68.140625 C 82.074219 68.179688 81.976562 68.144531 81.953125 68.132812 Z M 73.269531 69.269531 C 73.277344 69.261719 73.285156 69.257812 73.289062 69.253906 C 73.265625 69.273438 73.191406 69.324219 73.269531 69.269531 Z M 70.550781 72.839844 C 70.550781 72.832031 70.554688 72.824219 70.558594 72.816406 C 70.550781 72.84375 70.507812 72.933594 70.550781 72.839844 Z M 70.5625 72.8125 C 70.5625 72.8125 70.558594 72.816406 70.558594 72.816406 C 70.558594 72.816406 70.5625 72.8125 70.5625 72.8125 Z M 69.648438 76.324219 C 69.648438 76.324219 69.648438 76.320312 69.648438 76.320312 C 69.644531 76.359375 69.636719 76.40625 69.648438 76.324219 Z M 69.652344 76.289062 C 69.652344 76.289062 69.652344 76.292969 69.652344 76.292969 C 69.652344 76.292969 69.652344 76.292969 69.652344 76.289062 Z M 60.632812 91.054688 C 61.570312 89.386719 63.464844 88.691406 65.269531 88.40625 C 66.230469 88.253906 67.207031 88.214844 68.183594 88.179688 C 68.199219 89.347656 68.222656 90.515625 68.25 91.683594 C 68.265625 92.261719 68.28125 92.839844 68.296875 93.417969 C 68.304688 93.742188 68.578125 94.058594 68.921875 94.042969 C 69.253906 94.027344 69.558594 93.765625 69.550781 93.417969 C 69.480469 91.078125 69.433594 88.738281 69.414062 86.398438 C 69.390625 84.140625 69.371094 81.882812 69.421875 79.628906 C 69.445312 78.632812 69.496094 77.636719 69.609375 76.648438 C 69.621094 76.535156 69.640625 76.417969 69.652344 76.304688 C 69.65625 76.28125 69.660156 76.257812 69.660156 76.234375 C 69.671875 76.175781 69.679688 76.117188 69.6875 76.058594 C 69.726562 75.808594 69.769531 75.558594 69.820312 75.308594 C 69.914062 74.839844 70.027344 74.371094 70.167969 73.910156 C 70.238281 73.679688 70.316406 73.449219 70.398438 73.222656 C 70.441406 73.113281 70.484375 73.003906 70.527344 72.894531 C 70.535156 72.871094 70.550781 72.84375 70.558594 72.816406 C 70.582031 72.765625 70.605469 72.710938 70.628906 72.660156 C 70.828125 72.214844 71.0625 71.785156 71.324219 71.375 C 71.449219 71.183594 71.582031 70.996094 71.71875 70.8125 C 71.722656 70.808594 71.726562 70.804688 71.730469 70.800781 C 71.738281 70.792969 71.742188 70.785156 71.75 70.777344 C 71.777344 70.738281 71.808594 70.703125 71.839844 70.664062 C 71.914062 70.574219 71.988281 70.488281 72.066406 70.398438 C 72.367188 70.0625 72.695312 69.746094 73.042969 69.453125 C 73.125 69.386719 73.214844 69.324219 73.292969 69.25 C 73.304688 69.242188 73.320312 69.230469 73.335938 69.21875 C 73.382812 69.183594 73.433594 69.144531 73.484375 69.109375 C 73.667969 68.976562 73.855469 68.851562 74.050781 68.734375 C 74.4375 68.496094 74.839844 68.289062 75.257812 68.109375 C 75.265625 68.105469 75.269531 68.101562 75.273438 68.101562 C 75.285156 68.097656 75.292969 68.09375 75.296875 68.09375 C 75.347656 68.070312 75.398438 68.050781 75.449219 68.03125 C 75.554688 67.992188 75.65625 67.953125 75.761719 67.917969 C 75.980469 67.84375 76.207031 67.773438 76.429688 67.714844 C 76.644531 67.660156 76.859375 67.613281 77.074219 67.570312 C 77.183594 67.550781 77.292969 67.535156 77.402344 67.519531 C 77.40625 67.515625 77.410156 67.515625 77.417969 67.515625 C 77.429688 67.515625 77.441406 67.511719 77.449219 67.511719 C 77.515625 67.503906 77.578125 67.496094 77.644531 67.492188 C 78.121094 67.441406 78.601562 67.433594 79.082031 67.460938 C 79.1875 67.46875 79.296875 67.476562 79.40625 67.488281 C 79.464844 67.492188 79.519531 67.5 79.578125 67.503906 C 79.609375 67.507812 79.636719 67.511719 79.664062 67.515625 C 79.6875 67.519531 79.707031 67.519531 79.730469 67.523438 C 79.777344 67.53125 79.757812 67.527344 79.671875 67.515625 C 79.773438 67.503906 79.914062 67.554688 80.015625 67.570312 C 80.128906 67.589844 80.242188 67.613281 80.359375 67.636719 C 80.824219 67.738281 81.285156 67.875 81.734375 68.046875 C 81.789062 68.066406 81.84375 68.089844 81.898438 68.109375 C 81.914062 68.117188 81.933594 68.125 81.949219 68.132812 C 82.054688 68.191406 82.175781 68.230469 82.285156 68.28125 C 82.5 68.386719 82.714844 68.496094 82.921875 68.617188 C 83.128906 68.734375 83.332031 68.863281 83.527344 68.996094 C 83.625 69.0625 83.71875 69.128906 83.8125 69.199219 C 83.824219 69.207031 83.835938 69.21875 83.847656 69.226562 C 83.898438 69.273438 83.957031 69.3125 84.011719 69.355469 C 84.378906 69.652344 84.71875 69.980469 85.035156 70.332031 C 85.191406 70.5 85.335938 70.675781 85.480469 70.855469 C 85.492188 70.871094 85.503906 70.882812 85.511719 70.898438 C 85.546875 70.941406 85.582031 70.988281 85.613281 71.035156 C 85.6875 71.132812 85.757812 71.230469 85.824219 71.332031 C 86.09375 71.722656 86.335938 72.128906 86.554688 72.546875 C 86.664062 72.757812 86.769531 72.972656 86.867188 73.1875 C 86.914062 73.289062 86.953125 73.390625 87 73.488281 C 87.007812 73.511719 87.019531 73.53125 87.027344 73.554688 C 87.050781 73.613281 87.074219 73.675781 87.101562 73.734375 C 87.269531 74.171875 87.421875 74.617188 87.550781 75.066406 C 87.695312 75.554688 87.8125 76.050781 87.910156 76.550781 C 87.964844 76.828125 88.015625 77.109375 88.058594 77.386719 C 88.082031 77.523438 88.101562 77.660156 88.121094 77.796875 C 88.125 77.828125 88.128906 77.855469 88.132812 77.886719 C 88.140625 77.960938 88.152344 78.039062 88.160156 78.117188 C 88.429688 80.382812 88.410156 82.671875 88.4375 84.949219 C 88.464844 87.285156 88.496094 89.617188 88.523438 91.953125 C 88.527344 92.523438 88.535156 93.089844 88.542969 93.660156 C 88.546875 93.984375 88.828125 94.300781 89.167969 94.285156 C 89.503906 94.269531 89.800781 94.007812 89.796875 93.660156 C 89.769531 91.417969 89.742188 89.175781 89.714844 86.933594 C 94.230469 88.035156 98.804688 88.890625 103.414062 89.5 C 108.285156 90.144531 113.191406 90.507812 118.105469 90.585938 C 120.574219 90.625 123.039062 90.589844 125.503906 90.484375 C 126.78125 90.429688 129.386719 90.378906 129.488281 92.125 C 129.480469 92.246094 129.476562 92.371094 129.472656 92.492188 C 129.234375 94.421875 126.648438 95.023438 125.097656 95.402344 C 124.269531 95.605469 123.425781 95.761719 122.570312 95.804688 C 121.925781 95.839844 121.140625 95.800781 120.585938 95.726562 C 119.050781 95.523438 117.542969 95.136719 116.003906 94.9375 C 114.191406 94.699219 112.355469 94.648438 110.53125 94.730469 C 107.082031 94.886719 103.664062 95.46875 100.265625 96.035156 C 96.355469 96.6875 92.441406 97.328125 88.484375 97.667969 C 83.71875 98.074219 78.941406 98.011719 74.171875 97.664062 C 71.6875 97.484375 69.207031 97.226562 66.742188 96.886719 C 64.777344 96.613281 62.390625 96.40625 60.964844 94.855469 C 59.984375 93.789062 59.941406 92.28125 60.628906 91.054688 Z M 100.621094 113.8125 C 100.621094 114.148438 100.59375 114.480469 100.5625 114.8125 C 100.558594 114.824219 100.558594 114.832031 100.558594 114.839844 C 100.558594 114.839844 100.558594 114.84375 100.558594 114.84375 C 100.550781 114.878906 100.546875 114.917969 100.539062 114.953125 C 100.527344 115.035156 100.515625 115.117188 100.5 115.199219 C 100.46875 115.355469 100.433594 115.507812 100.386719 115.660156 C 100.371094 115.722656 100.351562 115.789062 100.328125 115.851562 C 100.324219 115.867188 100.289062 115.957031 100.277344 115.996094 C 100.265625 116.019531 100.253906 116.042969 100.253906 116.046875 C 100.242188 116.074219 100.226562 116.101562 100.214844 116.125 C 100.183594 116.1875 100.144531 116.246094 100.109375 116.304688 C 100.101562 116.316406 100.097656 116.324219 100.089844 116.335938 C 100.039062 116.378906 99.992188 116.433594 99.941406 116.480469 C 99.929688 116.496094 99.917969 116.503906 99.910156 116.511719 C 99.90625 116.515625 99.898438 116.519531 99.882812 116.53125 C 99.847656 116.554688 99.808594 116.582031 99.773438 116.605469 C 99.675781 116.664062 99.574219 116.71875 99.472656 116.765625 C 99.359375 116.820312 99.191406 116.875 99.011719 116.929688 C 98.804688 116.996094 98.59375 117.050781 98.382812 117.105469 C 97.890625 117.234375 97.398438 117.355469 96.902344 117.46875 C 93.078125 118.363281 89.171875 118.867188 85.25 119.066406 C 81.296875 119.269531 77.328125 119.171875 73.382812 118.882812 C 71.386719 118.738281 69.394531 118.542969 67.40625 118.3125 C 66.410156 118.199219 65.414062 118.074219 64.421875 117.941406 C 63.609375 117.835938 62.796875 117.730469 62 117.554688 C 61.621094 117.472656 61.242188 117.375 60.875 117.253906 C 60.480469 117.121094 60.28125 117.042969 59.914062 116.851562 C 59.746094 116.765625 59.578125 116.667969 59.417969 116.5625 C 59.347656 116.515625 59.277344 116.464844 59.210938 116.414062 C 59.109375 116.34375 59.164062 116.378906 59.183594 116.398438 C 59.132812 116.359375 59.085938 116.316406 59.035156 116.277344 C 58.742188 116.019531 58.5 115.75 58.308594 115.453125 C 58.207031 115.300781 58.117188 115.140625 58.039062 114.976562 C 58.023438 114.941406 58.007812 114.910156 57.992188 114.878906 C 57.992188 114.875 57.960938 114.796875 57.953125 114.785156 C 57.914062 114.679688 57.878906 114.574219 57.84375 114.46875 C 57.726562 114.082031 57.667969 113.734375 57.640625 113.410156 C 57.613281 113.070312 57.613281 112.730469 57.625 112.394531 C 58.078125 112.910156 58.660156 113.320312 59.285156 113.597656 C 60.378906 114.085938 61.554688 114.257812 62.730469 114.425781 C 65.269531 114.789062 67.816406 115.070312 70.375 115.261719 C 75.433594 115.640625 80.515625 115.671875 85.582031 115.363281 C 88.140625 115.207031 90.695312 114.964844 93.238281 114.632812 C 94.507812 114.46875 95.777344 114.285156 97.042969 114.074219 C 98.167969 113.890625 99.34375 113.765625 100.394531 113.296875 C 100.46875 113.265625 100.539062 113.230469 100.609375 113.191406 C 100.621094 113.398438 100.625 113.605469 100.621094 113.8125 Z M 97.667969 108.550781 C 98.628906 108.882812 99.6875 109.171875 100.359375 109.9375 C 100.46875 110.058594 100.570312 110.222656 100.667969 110.421875 C 100.722656 110.535156 100.789062 110.8125 100.796875 110.929688 C 100.796875 110.984375 100.796875 111.035156 100.796875 111.089844 C 100.792969 111.109375 100.78125 111.199219 100.785156 111.183594 C 100.769531 111.257812 100.746094 111.347656 100.726562 111.394531 C 100.695312 111.480469 100.660156 111.546875 100.617188 111.605469 C 100.59375 111.632812 100.570312 111.660156 100.550781 111.691406 C 100.492188 111.757812 100.421875 111.820312 100.332031 111.898438 C 100.320312 111.910156 100.308594 111.917969 100.300781 111.925781 C 100.292969 111.929688 100.28125 111.9375 100.261719 111.945312 C 100.226562 111.96875 100.195312 111.992188 100.15625 112.015625 C 100.066406 112.070312 99.972656 112.121094 99.878906 112.164062 C 99.742188 112.230469 99.519531 112.3125 99.289062 112.378906 C 98.789062 112.523438 98.273438 112.605469 97.761719 112.691406 C 96.570312 112.902344 95.371094 113.089844 94.171875 113.257812 C 91.800781 113.589844 89.417969 113.839844 87.03125 114.015625 C 82.199219 114.375 77.34375 114.421875 72.507812 114.152344 C 70.101562 114.019531 67.703125 113.808594 65.3125 113.519531 C 64.167969 113.378906 63.023438 113.238281 61.886719 113.042969 C 60.882812 112.871094 59.871094 112.636719 59.054688 112.03125 C 59.070312 112.039062 58.941406 111.941406 58.949219 111.945312 C 58.90625 111.910156 58.867188 111.871094 58.824219 111.832031 C 58.742188 111.757812 58.664062 111.675781 58.589844 111.59375 C 58.433594 111.421875 58.335938 111.285156 58.203125 111.039062 C 58.179688 111.003906 58.160156 110.964844 58.140625 110.921875 C 58.140625 110.925781 58.082031 110.789062 58.085938 110.804688 C 58.050781 110.710938 58.019531 110.617188 57.996094 110.523438 C 57.984375 110.480469 57.972656 110.4375 57.964844 110.398438 C 57.964844 110.394531 57.941406 110.261719 57.941406 110.269531 C 57.929688 110.15625 57.925781 110.035156 57.933594 109.921875 C 57.933594 109.890625 57.9375 109.859375 57.941406 109.828125 C 57.941406 109.832031 57.964844 109.699219 57.964844 109.699219 C 57.988281 109.59375 58.019531 109.492188 58.054688 109.390625 C 58.058594 109.378906 58.0625 109.371094 58.066406 109.363281 C 58.066406 109.359375 58.074219 109.351562 58.078125 109.335938 C 58.101562 109.289062 58.125 109.242188 58.152344 109.195312 C 58.210938 109.09375 58.273438 108.992188 58.34375 108.898438 C 58.34375 108.902344 58.429688 108.796875 58.425781 108.800781 C 58.453125 108.769531 58.484375 108.738281 58.515625 108.707031 C 58.589844 108.628906 58.667969 108.554688 58.75 108.484375 C 58.867188 108.378906 59.058594 108.246094 59.265625 108.132812 C 60.203125 107.605469 61.363281 107.496094 62.425781 107.347656 C 63.640625 107.183594 64.859375 107.015625 66.074219 106.847656 C 66.539062 106.78125 67.007812 106.71875 67.472656 106.652344 C 67.84375 107.078125 68.257812 107.464844 68.714844 107.8125 C 70.289062 109.003906 72.28125 109.546875 74.207031 109.835938 C 75.226562 109.988281 76.253906 110.082031 77.28125 110.152344 C 78.539062 110.242188 79.800781 110.328125 81.066406 110.335938 C 83.464844 110.355469 85.890625 110.058594 88.070312 109.003906 C 89.054688 108.523438 89.980469 107.878906 90.730469 107.078125 C 90.886719 106.914062 91.03125 106.746094 91.171875 106.566406 C 93.359375 107.148438 95.527344 107.808594 97.671875 108.550781 Z M 88.945312 107.011719 C 88.953125 107.007812 88.972656 106.996094 88.984375 106.984375 C 88.972656 106.996094 88.957031 107.003906 88.945312 107.011719 Z M 91.019531 104.398438 C 91.023438 104.378906 91.078125 104.265625 91.027344 104.378906 C 91.027344 104.382812 91.023438 104.390625 91.019531 104.398438 Z M 91.292969 103.597656 C 91.257812 103.722656 91.222656 103.847656 91.179688 103.96875 C 91.15625 104.042969 91.128906 104.113281 91.105469 104.1875 C 91.09375 104.210938 91.007812 104.375 91.019531 104.398438 C 91.011719 104.417969 91 104.441406 90.992188 104.460938 C 90.960938 104.53125 90.925781 104.601562 90.890625 104.667969 C 90.832031 104.792969 90.765625 104.914062 90.699219 105.035156 C 90.609375 105.191406 90.511719 105.34375 90.410156 105.496094 C 90.402344 105.503906 90.398438 105.511719 90.390625 105.523438 C 90.335938 105.601562 90.28125 105.679688 90.222656 105.753906 C 90.21875 105.761719 90.214844 105.765625 90.210938 105.773438 C 90.195312 105.796875 90.175781 105.816406 90.160156 105.835938 C 90.121094 105.886719 90.078125 105.933594 90.035156 105.984375 C 89.9375 106.097656 89.835938 106.210938 89.726562 106.316406 C 89.550781 106.496094 89.363281 106.667969 89.167969 106.832031 C 89.121094 106.871094 89.074219 106.910156 89.023438 106.953125 C 89.015625 106.957031 89.003906 106.964844 88.996094 106.976562 C 88.988281 106.980469 88.980469 106.984375 88.96875 106.996094 C 88.859375 107.074219 88.753906 107.152344 88.640625 107.230469 C 88.425781 107.375 88.207031 107.511719 87.980469 107.640625 C 87.757812 107.765625 87.53125 107.878906 87.300781 107.988281 C 87.195312 108.039062 87.085938 108.082031 86.976562 108.132812 C 86.953125 108.140625 86.929688 108.152344 86.90625 108.160156 C 86.832031 108.1875 86.761719 108.21875 86.6875 108.246094 C 86.203125 108.425781 85.703125 108.578125 85.199219 108.695312 C 84.949219 108.753906 84.699219 108.808594 84.449219 108.851562 C 84.316406 108.875 84.183594 108.894531 84.054688 108.914062 C 84.019531 108.921875 83.984375 108.925781 83.953125 108.929688 C 83.945312 108.929688 83.9375 108.933594 83.933594 108.933594 C 83.84375 108.945312 83.753906 108.957031 83.664062 108.964844 C 83.054688 109.035156 82.445312 109.070312 81.832031 109.082031 C 80.578125 109.109375 79.324219 109.039062 78.074219 108.957031 C 77.074219 108.890625 76.074219 108.824219 75.082031 108.703125 C 75.03125 108.695312 74.976562 108.691406 74.925781 108.683594 C 74.898438 108.679688 74.871094 108.675781 74.84375 108.671875 C 74.730469 108.65625 74.617188 108.640625 74.503906 108.625 C 74.261719 108.585938 74.019531 108.546875 73.78125 108.503906 C 73.3125 108.414062 72.851562 108.308594 72.390625 108.179688 C 72.164062 108.117188 71.9375 108.046875 71.710938 107.96875 C 71.496094 107.894531 71.285156 107.800781 71.066406 107.722656 C 71.054688 107.71875 71.042969 107.710938 71.027344 107.707031 C 70.976562 107.683594 70.925781 107.660156 70.875 107.636719 C 70.765625 107.585938 70.660156 107.535156 70.550781 107.480469 C 70.347656 107.378906 70.144531 107.265625 69.949219 107.144531 C 69.753906 107.023438 69.5625 106.894531 69.378906 106.753906 C 69.371094 106.75 69.363281 106.742188 69.355469 106.738281 C 69.3125 106.703125 69.265625 106.667969 69.222656 106.632812 C 69.132812 106.554688 69.042969 106.476562 68.957031 106.398438 C 68.785156 106.242188 68.625 106.082031 68.476562 105.910156 C 68.402344 105.832031 68.332031 105.746094 68.265625 105.664062 C 68.242188 105.625 68.210938 105.589844 68.179688 105.558594 C 68.179688 105.554688 68.179688 105.554688 68.175781 105.554688 C 68.128906 105.488281 68.082031 105.421875 68.035156 105.355469 C 67.734375 104.914062 67.488281 104.445312 67.269531 103.957031 C 67.269531 103.953125 67.265625 103.953125 67.265625 103.949219 C 67.253906 103.917969 67.242188 103.890625 67.230469 103.863281 C 67.207031 103.804688 67.183594 103.75 67.164062 103.695312 C 67.113281 103.5625 67.0625 103.429688 67.019531 103.296875 C 66.9375 103.0625 66.863281 102.824219 66.792969 102.585938 C 67.097656 102.625 67.398438 102.664062 67.699219 102.699219 C 73.921875 103.441406 80.191406 104.09375 86.464844 103.863281 C 88.089844 103.804688 89.703125 103.679688 91.316406 103.511719 C 91.308594 103.539062 91.300781 103.566406 91.292969 103.597656 Z M 129.167969 97.539062 C 129.125 97.660156 129.09375 97.71875 128.992188 97.894531 C 128.886719 98.078125 128.851562 98.121094 128.738281 98.246094 C 128.46875 98.539062 128.222656 98.707031 127.867188 98.898438 C 126.789062 99.476562 125.523438 99.824219 124.304688 99.925781 C 122.925781 100.042969 121.621094 99.792969 120.261719 99.589844 C 118.789062 99.371094 117.300781 99.261719 115.8125 99.25 C 112.804688 99.222656 109.8125 99.558594 106.839844 99.972656 C 100.921875 100.792969 95.058594 102.011719 89.097656 102.46875 C 83.039062 102.929688 76.964844 102.484375 70.9375 101.824219 C 69.527344 101.667969 68.117188 101.523438 66.710938 101.324219 C 65.453125 101.148438 64.183594 100.914062 63 100.441406 C 62.089844 100.078125 60.921875 99.503906 60.519531 98.550781 C 60.335938 98.113281 60.273438 97.617188 60.1875 97.152344 C 60.09375 96.640625 60.023438 96.128906 59.988281 95.609375 C 60.40625 96.09375 60.917969 96.503906 61.492188 96.816406 C 62.511719 97.371094 63.652344 97.65625 64.789062 97.847656 C 66.023438 98.058594 67.265625 98.210938 68.503906 98.363281 C 73.617188 98.984375 78.800781 99.328125 83.949219 99.175781 C 88.359375 99.050781 92.738281 98.511719 97.089844 97.816406 C 100.726562 97.238281 104.347656 96.53125 108.011719 96.164062 C 109.695312 95.996094 111.390625 95.902344 113.085938 95.953125 C 114.953125 96.011719 116.773438 96.277344 118.605469 96.640625 C 120.082031 96.929688 121.558594 97.160156 123.070312 97.015625 C 124.058594 96.921875 125.03125 96.722656 125.988281 96.460938 C 127.082031 96.164062 128.222656 95.820312 129.140625 95.128906 C 129.25 95.050781 129.351562 94.964844 129.453125 94.875 C 129.453125 95.035156 129.453125 95.199219 129.449219 95.359375 C 129.4375 96.152344 129.421875 96.804688 129.167969 97.539062 Z M 129.167969 97.539062 " fill-opacity="1" fill-rule="nonzero"/></g><path fill="#f1f2f2" d="M 72.148438 80.179688 C 73.082031 80.347656 74.023438 80.484375 74.96875 80.589844 C 75.867188 80.691406 76.765625 80.761719 77.667969 80.804688 C 78.570312 80.84375 79.476562 80.855469 80.378906 80.835938 C 81.28125 80.816406 82.183594 80.765625 83.082031 80.6875 C 84.027344 80.601562 84.972656 80.484375 85.910156 80.335938 C 86.019531 80.320312 86.128906 80.300781 86.242188 80.28125 C 86.386719 80.257812 86.542969 80.117188 86.613281 79.996094 C 86.695312 79.863281 86.726562 79.664062 86.679688 79.515625 C 86.628906 79.363281 86.535156 79.21875 86.390625 79.140625 L 86.242188 79.078125 C 86.128906 79.050781 86.019531 79.050781 85.90625 79.078125 C 85.503906 79.144531 85.097656 79.207031 84.691406 79.261719 L 84.859375 79.238281 C 83.472656 79.425781 82.074219 79.539062 80.671875 79.578125 C 79.273438 79.621094 77.875 79.585938 76.484375 79.484375 C 75.699219 79.425781 74.914062 79.34375 74.136719 79.238281 L 74.300781 79.261719 C 73.691406 79.179688 73.085938 79.082031 72.484375 78.972656 C 72.3125 78.945312 72.152344 78.949219 72 79.035156 C 71.871094 79.113281 71.746094 79.261719 71.710938 79.410156 C 71.675781 79.570312 71.683594 79.75 71.773438 79.890625 C 71.859375 80.019531 71.992188 80.148438 72.148438 80.179688 Z M 72.148438 80.179688 " fill-opacity="1" fill-rule="nonzero"/><path fill="#f1f2f2" d="M 72.105469 82.535156 C 73.042969 82.722656 73.988281 82.871094 74.9375 82.988281 C 75.84375 83.101562 76.753906 83.183594 77.664062 83.226562 C 78.574219 83.269531 79.484375 83.28125 80.390625 83.257812 C 81.304688 83.234375 82.21875 83.179688 83.125 83.085938 C 84.078125 82.992188 85.027344 82.859375 85.96875 82.695312 C 86.082031 82.675781 86.195312 82.652344 86.308594 82.632812 C 86.457031 82.605469 86.609375 82.46875 86.683594 82.34375 C 86.761719 82.210938 86.796875 82.015625 86.746094 81.863281 C 86.699219 81.714844 86.601562 81.566406 86.457031 81.492188 C 86.300781 81.410156 86.148438 81.394531 85.976562 81.429688 C 85.371094 81.539062 84.765625 81.636719 84.15625 81.71875 L 84.320312 81.699219 C 83.066406 81.867188 81.804688 81.96875 80.539062 82.007812 C 79.273438 82.042969 78.007812 82.015625 76.746094 81.921875 C 76.035156 81.867188 75.324219 81.792969 74.617188 81.699219 L 74.785156 81.722656 C 74 81.617188 73.214844 81.484375 72.4375 81.328125 C 72.273438 81.296875 72.105469 81.304688 71.957031 81.390625 C 71.828125 81.46875 71.703125 81.617188 71.667969 81.765625 C 71.632812 81.925781 71.640625 82.105469 71.730469 82.246094 C 71.816406 82.378906 71.945312 82.5 72.105469 82.535156 Z M 72.105469 82.535156 " fill-opacity="1" fill-rule="nonzero"/><path fill="#f1f2f2" d="M 72.320312 85.039062 C 73.246094 85.175781 74.171875 85.289062 75.105469 85.375 C 75.988281 85.460938 76.875 85.519531 77.761719 85.554688 C 78.652344 85.589844 79.546875 85.601562 80.4375 85.585938 C 81.324219 85.574219 82.210938 85.535156 83.097656 85.476562 C 83.984375 85.414062 84.867188 85.332031 85.75 85.222656 C 85.859375 85.207031 85.96875 85.195312 86.082031 85.179688 C 86.167969 85.183594 86.246094 85.164062 86.320312 85.125 C 86.398438 85.101562 86.464844 85.058594 86.523438 84.996094 C 86.632812 84.890625 86.714844 84.710938 86.707031 84.554688 C 86.699219 84.398438 86.644531 84.226562 86.523438 84.113281 C 86.410156 84.011719 86.242188 83.910156 86.082031 83.929688 C 84.40625 84.148438 82.722656 84.28125 81.035156 84.324219 C 79.359375 84.371094 77.679688 84.328125 76.007812 84.203125 C 75.058594 84.132812 74.113281 84.03125 73.171875 83.90625 L 73.339844 83.929688 C 73.109375 83.898438 72.882812 83.867188 72.652344 83.832031 C 72.570312 83.808594 72.484375 83.804688 72.402344 83.820312 C 72.320312 83.824219 72.242188 83.851562 72.171875 83.894531 C 72.039062 83.972656 71.917969 84.121094 71.882812 84.269531 C 71.84375 84.429688 71.855469 84.609375 71.945312 84.75 C 72.027344 84.878906 72.164062 85.015625 72.320312 85.035156 Z M 72.320312 85.039062 " fill-opacity="1" fill-rule="nonzero"/><path fill="#ef845a" d="M 79.398438 82.152344 C 79.210938 82.039062 78.941406 82.09375 78.808594 82.265625 C 78.679688 82.441406 78.707031 82.714844 78.871094 82.863281 C 78.976562 82.953125 79.113281 82.992188 79.253906 83.019531 C 79.40625 83.046875 79.570312 83.066406 79.714844 83.003906 C 79.855469 82.945312 79.957031 82.816406 79.992188 82.667969 C 80.023438 82.523438 79.988281 82.363281 79.898438 82.242188 C 79.757812 82.054688 79.484375 81.972656 79.265625 82.054688 " fill-opacity="1" fill-rule="nonzero"/><path fill="#ff6a32" d="M 79.714844 81.613281 C 79.644531 81.570312 79.566406 81.542969 79.488281 81.515625 C 79.410156 81.488281 79.316406 81.484375 79.242188 81.472656 C 79.128906 81.457031 79.015625 81.476562 78.90625 81.5 C 78.878906 81.507812 78.851562 81.515625 78.828125 81.527344 C 78.753906 81.554688 78.667969 81.585938 78.601562 81.628906 C 78.453125 81.722656 78.355469 81.824219 78.257812 81.964844 C 78.214844 82.03125 78.1875 82.113281 78.160156 82.183594 C 78.148438 82.210938 78.136719 82.238281 78.132812 82.269531 C 78.117188 82.351562 78.101562 82.4375 78.101562 82.519531 C 78.101562 82.605469 78.117188 82.691406 78.128906 82.769531 C 78.132812 82.800781 78.140625 82.828125 78.152344 82.851562 C 78.179688 82.929688 78.207031 83.007812 78.25 83.078125 C 78.292969 83.148438 78.339844 83.207031 78.390625 83.265625 C 78.449219 83.332031 78.523438 83.382812 78.589844 83.429688 C 78.617188 83.449219 78.648438 83.46875 78.679688 83.480469 C 78.761719 83.519531 78.84375 83.554688 78.925781 83.582031 C 78.996094 83.605469 79.066406 83.617188 79.140625 83.628906 C 79.265625 83.652344 79.40625 83.675781 79.535156 83.667969 C 79.625 83.664062 79.714844 83.652344 79.800781 83.632812 C 79.816406 83.628906 79.835938 83.621094 79.851562 83.617188 C 79.917969 83.59375 79.984375 83.566406 80.050781 83.535156 C 80.078125 83.519531 80.101562 83.503906 80.128906 83.488281 C 80.191406 83.441406 80.269531 83.386719 80.324219 83.324219 C 80.378906 83.261719 80.429688 83.199219 80.472656 83.128906 C 80.515625 83.058594 80.546875 82.972656 80.578125 82.894531 C 80.585938 82.867188 80.59375 82.835938 80.601562 82.804688 C 80.613281 82.722656 80.632812 82.625 80.628906 82.535156 C 80.625 82.46875 80.613281 82.398438 80.601562 82.332031 C 80.601562 82.3125 80.597656 82.292969 80.59375 82.273438 C 80.574219 82.191406 80.53125 82.101562 80.496094 82.023438 C 80.476562 81.988281 80.457031 81.953125 80.433594 81.921875 C 80.382812 81.851562 80.332031 81.78125 80.269531 81.722656 C 80.203125 81.667969 80.136719 81.613281 80.0625 81.570312 C 79.992188 81.523438 79.902344 81.492188 79.828125 81.460938 C 79.714844 81.417969 79.585938 81.402344 79.46875 81.398438 C 79.378906 81.394531 79.289062 81.414062 79.203125 81.425781 C 79.167969 81.429688 79.132812 81.4375 79.097656 81.453125 C 79.015625 81.46875 78.945312 81.507812 78.882812 81.5625 C 78.816406 81.605469 78.761719 81.664062 78.722656 81.738281 C 78.675781 81.808594 78.652344 81.886719 78.648438 81.96875 C 78.628906 82.054688 78.632812 82.136719 78.660156 82.21875 L 78.722656 82.367188 C 78.777344 82.460938 78.851562 82.535156 78.945312 82.59375 L 79.097656 82.65625 C 79.207031 82.683594 79.320312 82.683594 79.429688 82.65625 C 79.464844 82.644531 79.503906 82.632812 79.539062 82.628906 L 79.375 82.652344 C 79.425781 82.644531 79.472656 82.644531 79.523438 82.652344 L 79.355469 82.628906 C 79.40625 82.636719 79.453125 82.648438 79.5 82.667969 L 79.351562 82.605469 C 79.398438 82.625 79.441406 82.652344 79.480469 82.679688 L 79.355469 82.582031 C 79.390625 82.609375 79.421875 82.640625 79.449219 82.675781 L 79.351562 82.550781 C 79.375 82.585938 79.398438 82.621094 79.417969 82.664062 L 79.351562 82.515625 C 79.375 82.5625 79.386719 82.609375 79.394531 82.660156 L 79.371094 82.496094 C 79.375 82.539062 79.375 82.582031 79.371094 82.625 L 79.394531 82.460938 C 79.386719 82.5 79.375 82.539062 79.359375 82.578125 L 79.421875 82.429688 C 79.40625 82.46875 79.386719 82.507812 79.359375 82.539062 L 79.457031 82.414062 C 79.429688 82.449219 79.402344 82.480469 79.367188 82.503906 L 79.492188 82.40625 C 79.464844 82.429688 79.433594 82.449219 79.398438 82.460938 L 79.546875 82.398438 C 79.503906 82.417969 79.460938 82.429688 79.414062 82.4375 L 79.578125 82.414062 C 79.503906 82.421875 79.425781 82.417969 79.347656 82.410156 L 79.515625 82.429688 C 79.40625 82.417969 79.292969 82.394531 79.191406 82.351562 L 79.339844 82.414062 C 79.292969 82.394531 79.25 82.371094 79.210938 82.339844 L 79.335938 82.4375 C 79.308594 82.414062 79.285156 82.390625 79.261719 82.363281 L 79.359375 82.488281 C 79.335938 82.460938 79.320312 82.429688 79.304688 82.394531 L 79.367188 82.542969 C 79.351562 82.503906 79.339844 82.464844 79.335938 82.421875 L 79.355469 82.585938 C 79.351562 82.542969 79.351562 82.503906 79.359375 82.460938 L 79.335938 82.625 C 79.339844 82.585938 79.351562 82.550781 79.367188 82.511719 L 79.304688 82.660156 C 79.316406 82.628906 79.335938 82.601562 79.355469 82.574219 L 79.257812 82.699219 C 79.277344 82.675781 79.300781 82.652344 79.328125 82.628906 L 79.199219 82.726562 C 79.230469 82.703125 79.265625 82.683594 79.300781 82.667969 L 79.152344 82.730469 C 79.195312 82.714844 79.238281 82.703125 79.28125 82.695312 L 79.113281 82.71875 C 79.15625 82.714844 79.199219 82.714844 79.238281 82.71875 L 79.074219 82.699219 C 79.109375 82.703125 79.144531 82.710938 79.175781 82.726562 L 79.027344 82.664062 C 79.046875 82.671875 79.0625 82.679688 79.082031 82.691406 C 79.152344 82.734375 79.230469 82.761719 79.3125 82.765625 C 79.394531 82.78125 79.480469 82.777344 79.5625 82.753906 C 79.644531 82.734375 79.714844 82.695312 79.777344 82.640625 C 79.84375 82.597656 79.898438 82.539062 79.9375 82.464844 L 80 82.316406 C 80.03125 82.207031 80.03125 82.097656 80 81.984375 L 79.9375 81.835938 C 79.882812 81.742188 79.808594 81.667969 79.710938 81.613281 Z M 79.714844 81.613281 " fill-opacity="1" fill-rule="nonzero"/><path fill="#324a5e" d="M 187 93.5 C 187 95.03125 186.964844 96.558594 186.890625 98.089844 C 186.8125 99.617188 186.699219 101.140625 186.550781 102.664062 C 186.402344 104.1875 186.214844 105.707031 185.988281 107.21875 C 185.765625 108.734375 185.503906 110.242188 185.203125 111.742188 C 184.90625 113.242188 184.570312 114.734375 184.199219 116.21875 C 183.828125 117.703125 183.417969 119.179688 182.976562 120.640625 C 182.53125 122.105469 182.050781 123.558594 181.535156 125 C 181.019531 126.441406 180.46875 127.867188 179.882812 129.28125 C 179.296875 130.695312 178.679688 132.09375 178.023438 133.476562 C 177.371094 134.859375 176.683594 136.226562 175.960938 137.578125 C 175.238281 138.925781 174.484375 140.257812 173.699219 141.570312 C 172.914062 142.882812 172.09375 144.175781 171.242188 145.445312 C 170.394531 146.71875 169.511719 147.96875 168.601562 149.199219 C 167.691406 150.429688 166.75 151.632812 165.777344 152.816406 C 164.808594 154 163.808594 155.15625 162.78125 156.292969 C 161.753906 157.425781 160.699219 158.535156 159.617188 159.617188 C 158.535156 160.699219 157.425781 161.753906 156.292969 162.78125 C 155.15625 163.808594 154 164.808594 152.816406 165.777344 C 151.632812 166.75 150.429688 167.691406 149.199219 168.601562 C 147.96875 169.511719 146.71875 170.394531 145.445312 171.242188 C 144.175781 172.09375 142.882812 172.914062 141.570312 173.699219 C 140.257812 174.484375 138.925781 175.238281 137.578125 175.960938 C 136.226562 176.683594 134.859375 177.371094 133.476562 178.023438 C 132.09375 178.679688 130.695312 179.296875 129.28125 179.882812 C 127.867188 180.46875 126.441406 181.019531 125 181.535156 C 123.558594 182.050781 122.105469 182.53125 120.640625 182.976562 C 119.179688 183.417969 117.703125 183.828125 116.21875 184.199219 C 114.734375 184.570312 113.242188 184.90625 111.742188 185.203125 C 110.242188 185.503906 108.734375 185.765625 107.21875 185.988281 C 105.707031 186.214844 104.1875 186.402344 102.664062 186.550781 C 101.140625 186.699219 99.617188 186.8125 98.089844 186.890625 C 96.558594 186.964844 95.03125 187 93.5 187 C 91.96875 187 90.441406 186.964844 88.914062 186.890625 C 87.382812 186.8125 85.859375 186.699219 84.335938 186.550781 C 82.8125 186.402344 81.292969 186.214844 79.78125 185.988281 C 78.269531 185.765625 76.761719 185.503906 75.257812 185.203125 C 73.757812 184.90625 72.265625 184.570312 70.78125 184.199219 C 69.296875 183.828125 67.824219 183.417969 66.359375 182.976562 C 64.894531 182.53125 63.441406 182.050781 62 181.535156 C 60.558594 181.019531 59.132812 180.46875 57.71875 179.882812 C 56.304688 179.296875 54.90625 178.679688 53.523438 178.023438 C 52.140625 177.371094 50.773438 176.683594 49.425781 175.960938 C 48.074219 175.238281 46.746094 174.484375 45.433594 173.699219 C 44.121094 172.914062 42.828125 172.09375 41.554688 171.242188 C 40.28125 170.394531 39.03125 169.511719 37.800781 168.601562 C 36.574219 167.691406 35.367188 166.75 34.183594 165.777344 C 33 164.808594 31.84375 163.808594 30.710938 162.78125 C 29.574219 161.753906 28.46875 160.699219 27.386719 159.617188 C 26.304688 158.535156 25.25 157.425781 24.222656 156.292969 C 23.195312 155.15625 22.195312 154 21.222656 152.816406 C 20.253906 151.632812 19.3125 150.429688 18.398438 149.199219 C 17.488281 147.96875 16.609375 146.71875 15.757812 145.445312 C 14.90625 144.175781 14.089844 142.882812 13.300781 141.570312 C 12.515625 140.257812 11.761719 138.925781 11.039062 137.578125 C 10.320312 136.226562 9.632812 134.859375 8.976562 133.476562 C 8.324219 132.09375 7.703125 130.695312 7.117188 129.28125 C 6.53125 127.867188 5.980469 126.441406 5.464844 125 C 4.949219 123.558594 4.46875 122.105469 4.027344 120.640625 C 3.582031 119.179688 3.175781 117.703125 2.800781 116.21875 C 2.429688 114.734375 2.09375 113.242188 1.796875 111.742188 C 1.5 110.242188 1.238281 108.734375 1.011719 107.21875 C 0.789062 105.707031 0.601562 104.1875 0.449219 102.664062 C 0.300781 101.140625 0.1875 99.617188 0.113281 98.089844 C 0.0390625 96.558594 0 95.03125 0 93.5 C 0 91.96875 0.0390625 90.441406 0.113281 88.914062 C 0.1875 87.382812 0.300781 85.859375 0.449219 84.335938 C 0.601562 82.8125 0.789062 81.292969 1.011719 79.78125 C 1.238281 78.269531 1.5 76.761719 1.796875 75.257812 C 2.09375 73.757812 2.429688 72.265625 2.800781 70.78125 C 3.175781 69.296875 3.582031 67.824219 4.027344 66.359375 C 4.46875 64.894531 4.949219 63.441406 5.464844 62 C 5.980469 60.558594 6.53125 59.132812 7.117188 57.71875 C 7.703125 56.304688 8.324219 54.90625 8.976562 53.523438 C 9.632812 52.140625 10.320312 50.773438 11.039062 49.425781 C 11.761719 48.074219 12.515625 46.746094 13.300781 45.433594 C 14.089844 44.121094 14.90625 42.828125 15.757812 41.554688 C 16.609375 40.28125 17.488281 39.03125 18.398438 37.800781 C 19.3125 36.574219 20.253906 35.367188 21.222656 34.183594 C 22.195312 33 23.195312 31.84375 24.222656 30.710938 C 25.25 29.574219 26.304688 28.46875 27.386719 27.386719 C 28.46875 26.304688 29.574219 25.25 30.710938 24.222656 C 31.84375 23.195312 33 22.195312 34.183594 21.222656 C 35.367188 20.253906 36.574219 19.3125 37.800781 18.398438 C 39.03125 17.488281 40.28125 16.609375 41.554688 15.757812 C 42.828125 14.90625 44.121094 14.089844 45.433594 13.300781 C 46.746094 12.515625 48.074219 11.761719 49.425781 11.039062 C 50.773438 10.320312 52.140625 9.632812 53.523438 8.976562 C 54.90625 8.324219 56.304688 7.703125 57.71875 7.117188 C 59.132812 6.53125 60.558594 5.980469 62 5.464844 C 63.441406 4.949219 64.894531 4.46875 66.359375 4.027344 C 67.824219 3.582031 69.296875 3.175781 70.78125 2.800781 C 72.265625 2.429688 73.757812 2.09375 75.257812 1.796875 C 76.761719 1.5 78.269531 1.238281 79.78125 1.011719 C 81.292969 0.789062 82.8125 0.601562 84.335938 0.449219 C 85.859375 0.300781 87.382812 0.1875 88.914062 0.113281 C 90.441406 0.0390625 91.96875 0 93.5 0 C 95.03125 0 96.558594 0.0390625 98.089844 0.113281 C 99.617188 0.1875 101.140625 0.300781 102.664062 0.449219 C 104.1875 0.601562 105.707031 0.789062 107.21875 1.011719 C 108.734375 1.238281 110.242188 1.5 111.742188 1.796875 C 113.242188 2.09375 114.734375 2.429688 116.21875 2.800781 C 117.703125 3.175781 119.179688 3.582031 120.640625 4.027344 C 122.105469 4.46875 123.558594 4.949219 125 5.464844 C 126.441406 5.980469 127.867188 6.53125 129.28125 7.117188 C 130.695312 7.703125 132.09375 8.324219 133.476562 8.976562 C 134.859375 9.632812 136.226562 10.320312 137.578125 11.039062 C 138.925781 11.761719 140.257812 12.515625 141.570312 13.300781 C 142.882812 14.089844 144.175781 14.90625 145.445312 15.757812 C 146.71875 16.609375 147.96875 17.488281 149.199219 18.398438 C 150.429688 19.3125 151.632812 20.253906 152.816406 21.222656 C 154 22.195312 155.15625 23.195312 156.292969 24.222656 C 157.425781 25.25 158.535156 26.304688 159.617188 27.386719 C 160.699219 28.46875 161.753906 29.574219 162.78125 30.710938 C 163.808594 31.84375 164.808594 33 165.777344 34.183594 C 166.75 35.367188 167.691406 36.574219 168.601562 37.800781 C 169.511719 39.03125 170.394531 40.28125 171.242188 41.554688 C 172.09375 42.828125 172.914062 44.121094 173.699219 45.433594 C 174.484375 46.746094 175.238281 48.074219 175.960938 49.425781 C 176.683594 50.773438 177.371094 52.140625 178.023438 53.523438 C 178.679688 54.90625 179.296875 56.304688 179.882812 57.71875 C 180.46875 59.132812 181.019531 60.558594 181.535156 62 C 182.050781 63.441406 182.53125 64.894531 182.976562 66.359375 C 183.417969 67.824219 183.828125 69.296875 184.199219 70.78125 C 184.570312 72.265625 184.90625 73.757812 185.203125 75.257812 C 185.503906 76.761719 185.765625 78.269531 185.988281 79.78125 C 186.214844 81.292969 186.402344 82.8125 186.550781 84.335938 C 186.699219 85.859375 186.8125 87.382812 186.890625 88.914062 C 186.964844 90.441406 187 91.96875 187 93.5 Z M 187 93.5 " fill-opacity="1" fill-rule="nonzero"/><path fill="#4cdbc4" d="M 128.359375 156.265625 C 138.042969 156.265625 145.992188 148.460938 146.066406 138.777344 C 146.066406 138.703125 146.066406 138.667969 146.066406 138.59375 C 146.066406 113.820312 122.542969 93.757812 93.5 93.757812 C 64.457031 93.757812 40.933594 113.820312 40.933594 138.59375 C 40.933594 138.667969 40.933594 138.703125 40.933594 138.777344 C 40.972656 148.460938 48.921875 156.265625 58.640625 156.265625 Z M 128.359375 156.265625 " fill-opacity="1" fill-rule="nonzero"/><path fill="#2c9984" d="M 127.515625 76.605469 C 127.515625 76.640625 127.515625 76.714844 127.515625 76.75 C 126.667969 88.898438 120.59375 100.164062 110.949219 107.597656 C 109.84375 108.445312 108.703125 109.292969 107.527344 110.101562 C 103.476562 112.863281 98.800781 115.515625 93.5 117.980469 C 88.199219 115.515625 83.523438 112.863281 79.476562 110.066406 C 78.296875 109.257812 77.15625 108.410156 76.050781 107.5625 C 66.40625 100.125 60.332031 88.863281 59.488281 76.714844 L 59.488281 76.566406 C 60.222656 70.089844 63.425781 63.648438 69.09375 57.609375 C 74.765625 51.574219 82.898438 45.902344 93.5 40.933594 C 114.703125 50.875 126.078125 63.648438 127.515625 76.605469 Z M 127.515625 76.605469 " fill-opacity="1" fill-rule="nonzero"/><path fill="#f9b54c" d="M 107.527344 110.101562 C 103.476562 112.863281 98.800781 115.515625 93.5 117.980469 C 88.199219 115.515625 83.523438 112.863281 79.476562 110.066406 L 81.023438 94.824219 L 106.015625 94.824219 Z M 107.527344 110.101562 " fill-opacity="1" fill-rule="nonzero"/><path fill="#ffd05b" d="M 118.3125 74.394531 C 118.3125 93.058594 107.304688 108.1875 93.683594 108.1875 C 81.351562 108.1875 71.121094 95.746094 69.351562 79.476562 C 69.167969 77.820312 66.519531 76.015625 67.878906 66.078125 C 69.90625 51.386719 82.238281 40.566406 93.683594 40.566406 C 107.269531 40.601562 118.3125 55.730469 118.3125 74.394531 Z M 118.3125 74.394531 " fill-opacity="1" fill-rule="nonzero"/><path fill="#ffd05b" d="M 69.316406 79.476562 L 67.992188 76.605469 L 69.316406 75.132812 L 71.046875 78.078125 Z M 69.316406 79.476562 " fill-opacity="1" fill-rule="nonzero"/><path fill="#324a5e" d="M 96.480469 35.671875 C 97.402344 35.964844 116.066406 36.441406 123.832031 50.503906 L 118.9375 47.449219 C 118.9375 47.449219 122.730469 51.277344 123.316406 59.929688 C 123.6875 65.449219 122.617188 70.933594 120.335938 76.050781 L 117.871094 81.535156 C 117.871094 81.535156 118.605469 62.136719 114.445312 59.964844 C 114.445312 59.964844 111.207031 63.941406 114.445312 67.621094 C 114.445312 67.621094 104.324219 67.4375 105.941406 54.003906 C 105.941406 54.003906 91.660156 52.640625 90.777344 66.371094 C 90.777344 66.371094 84.8125 66.078125 85.550781 58.566406 C 85.550781 58.566406 77.78125 59.191406 75.976562 67.4375 C 75.976562 67.4375 75.574219 62.578125 72.1875 59.5625 C 72.1875 59.5625 69.535156 72.59375 69.351562 79.476562 C 69.351562 79.476562 49.585938 43.804688 95.746094 35.414062 C 96.003906 35.375 96.226562 35.558594 96.480469 35.671875 Z M 96.480469 35.671875 " fill-opacity="1" fill-rule="nonzero"/><path fill="#4cdbc4" d="M 93.5 22.085938 C 93.464844 22.085938 93.425781 22.085938 93.390625 22.085938 C 93.351562 22.085938 93.316406 22.085938 93.28125 22.085938 C 74.433594 22.566406 59.265625 44.578125 59.265625 71.632812 C 59.265625 73.292969 59.339844 74.949219 59.449219 76.605469 C 60.664062 66.078125 68.503906 55.660156 82.9375 46.824219 C 89.339844 42.886719 97.441406 42.886719 103.84375 46.824219 C 118.273438 55.660156 126.117188 66.078125 127.332031 76.605469 C 127.441406 74.984375 127.515625 73.328125 127.515625 71.632812 C 127.550781 44.578125 112.347656 22.566406 93.5 22.085938 Z M 93.5 22.085938 " fill-opacity="1" fill-rule="nonzero"/><path fill="#e6e9ee" d="M 128.359375 111.316406 L 58.640625 111.316406 C 55.546875 111.316406 53.558594 113.785156 54.222656 116.765625 L 62.210938 152.988281 C 62.617188 154.828125 64.824219 156.265625 67.179688 156.265625 L 119.785156 156.265625 C 122.140625 156.265625 124.347656 154.828125 124.753906 152.988281 L 132.742188 116.765625 C 133.402344 113.785156 131.453125 111.316406 128.359375 111.316406 Z M 128.359375 111.316406 " fill-opacity="1" fill-rule="nonzero"/><path fill="#ced5e0" d="M 103.402344 132.375 C 103.402344 132.667969 103.339844 132.960938 103.210938 133.25 C 103.085938 133.539062 102.898438 133.820312 102.648438 134.09375 C 102.398438 134.363281 102.09375 134.625 101.734375 134.867188 C 101.371094 135.113281 100.960938 135.339844 100.503906 135.550781 C 100.042969 135.757812 99.542969 135.945312 99.003906 136.109375 C 98.460938 136.269531 97.890625 136.410156 97.289062 136.523438 C 96.6875 136.636719 96.070312 136.71875 95.433594 136.777344 C 94.792969 136.835938 94.152344 136.863281 93.5 136.863281 C 92.851562 136.863281 92.207031 136.835938 91.570312 136.777344 C 90.929688 136.71875 90.3125 136.636719 89.710938 136.523438 C 89.109375 136.410156 88.539062 136.269531 88 136.109375 C 87.457031 135.945312 86.957031 135.757812 86.5 135.550781 C 86.039062 135.339844 85.628906 135.113281 85.265625 134.867188 C 84.90625 134.625 84.601562 134.363281 84.351562 134.09375 C 84.101562 133.820312 83.914062 133.539062 83.789062 133.25 C 83.660156 132.960938 83.597656 132.667969 83.597656 132.375 C 83.597656 132.078125 83.660156 131.785156 83.789062 131.496094 C 83.914062 131.207031 84.101562 130.925781 84.351562 130.65625 C 84.601562 130.382812 84.90625 130.125 85.265625 129.878906 C 85.628906 129.632812 86.039062 129.40625 86.5 129.199219 C 86.957031 128.988281 87.457031 128.804688 88 128.640625 C 88.539062 128.476562 89.109375 128.335938 89.710938 128.222656 C 90.3125 128.113281 90.929688 128.027344 91.570312 127.96875 C 92.207031 127.910156 92.851562 127.882812 93.5 127.882812 C 94.152344 127.882812 94.792969 127.910156 95.433594 127.96875 C 96.070312 128.027344 96.6875 128.113281 97.289062 128.222656 C 97.890625 128.335938 98.460938 128.476562 99.003906 128.640625 C 99.542969 128.804688 100.042969 128.988281 100.503906 129.199219 C 100.960938 129.40625 101.371094 129.632812 101.734375 129.878906 C 102.09375 130.125 102.398438 130.382812 102.648438 130.65625 C 102.898438 130.925781 103.085938 131.207031 103.210938 131.496094 C 103.339844 131.785156 103.402344 132.078125 103.402344 132.375 Z M 103.402344 132.375 " fill-opacity="1" fill-rule="nonzero"/></svg>