<svg xmlns="http://www.w3.org/2000/svg" xmlns:xlink="http://www.w3.org/1999/xlink" width="800" zoomAndPan="magnify" viewBox="0 0 600 599.999999" height="800" preserveAspectRatio="xMidYMid meet" version="1.0"><defs><clipPath id="72e6d8e9b7"><path d="M 14.589844 30 L 571 30 L 571 569.953125 L 14.589844 569.953125 Z M 14.589844 30 " clip-rule="nonzero"/></clipPath><clipPath id="2f2a80b58d"><path d="M 0.199219 41 L 599.835938 41 L 599.835938 569.953125 L 0.199219 569.953125 Z M 0.199219 41 " clip-rule="nonzero"/></clipPath></defs><g clip-path="url(#72e6d8e9b7)"><path fill="#d586ff" d="M 101.976562 295.191406 L 46.242188 295.191406 C 44.015625 295.191406 42.21875 293.394531 42.21875 291.171875 L 42.21875 284.207031 C 42.21875 281.988281 44.015625 280.1875 46.242188 280.1875 L 101.976562 280.1875 C 104.199219 280.1875 105.996094 281.988281 105.996094 284.207031 L 105.996094 291.171875 C 105.996094 293.394531 104.199219 295.191406 101.976562 295.191406 Z M 14.980469 247.726562 L 14.980469 225.191406 L 27.195312 225.191406 L 27.195312 247.726562 C 27.195312 248.527344 26.542969 249.175781 25.742188 249.175781 L 16.429688 249.175781 C 15.628906 249.175781 14.980469 248.527344 14.980469 247.726562 Z M 116.148438 92.53125 L 116.066406 92.511719 L 116.066406 80.5625 C 116.066406 52.640625 93.429688 30 65.503906 30 C 37.578125 30 14.941406 52.640625 14.941406 80.5625 L 14.941406 103.9375 L 17.742188 103.9375 L 29.277344 144.898438 C 29.730469 146.503906 31.398438 147.4375 33 146.988281 L 40.121094 144.984375 C 41.726562 144.527344 42.660156 142.859375 42.210938 141.257812 L 28.132812 91.285156 C 27.679688 89.683594 26.015625 88.75 24.410156 89.203125 L 20.050781 90.429688 L 20.050781 82.753906 C 20.050781 57.441406 40.40625 41.261719 65.503906 41.261719 C 90.609375 41.261719 110.953125 57.441406 110.953125 82.753906 L 110.953125 91.070312 L 109.027344 90.527344 C 107.421875 90.078125 105.757812 91.007812 105.308594 92.617188 L 91.226562 142.585938 C 90.777344 144.191406 91.710938 145.855469 93.316406 146.308594 L 100.4375 148.3125 C 102.039062 148.761719 103.707031 147.832031 104.160156 146.230469 L 118.230469 96.253906 C 118.6875 94.652344 117.75 92.984375 116.148438 92.53125 Z M 250.542969 108.675781 L 252.347656 110.476562 L 266.28125 96.542969 L 264.476562 94.738281 Z M 266.140625 90.113281 L 264.335938 88.3125 L 250.402344 102.246094 L 252.207031 104.050781 Z M 553.976562 569.953125 L 40.847656 569.953125 C 40.847656 569.953125 78.0625 486.929688 120.894531 441.011719 C 163.722656 395.101562 135.652344 365.96875 165.558594 297.15625 C 245.75 112.625 371.378906 89.101562 473.257812 115.503906 C 645.964844 160.253906 433.148438 281.53125 520.40625 304.601562 C 607.660156 327.671875 553.976562 569.953125 553.976562 569.953125 " fill-opacity="1" fill-rule="nonzero"/></g><path fill="#9600ff" d="M 95.332031 454.601562 L 35.242188 454.601562 C 34.132812 454.601562 33.234375 455.5 33.234375 456.605469 L 33.234375 461.148438 L 37.683594 461.148438 L 41.71875 505.460938 L 88.855469 505.460938 L 92.890625 461.148438 L 97.339844 461.148438 L 97.339844 456.605469 C 97.339844 455.5 96.441406 454.601562 95.332031 454.601562 Z M 304.945312 439.746094 C 304.945312 432.097656 297.625 425.890625 288.59375 425.890625 C 279.5625 425.890625 272.242188 432.097656 272.242188 439.746094 C 272.242188 447.402344 279.5625 453.605469 288.59375 453.605469 C 297.625 453.605469 304.945312 447.402344 304.945312 439.746094 Z M 402.796875 378.914062 L 410.09375 394.042969 L 410.09375 378.914062 Z M 434.390625 434.960938 L 433.984375 441.976562 L 376.070312 461.097656 L 374.257812 455.195312 L 370.945312 500.933594 L 361.417969 501.234375 L 362.144531 494.5 C 362.390625 493.378906 361.660156 492.285156 360.652344 492.285156 L 222.117188 492.285156 L 214.1875 430.089844 L 182.609375 464.949219 L 134.804688 437.300781 L 134.242188 427.988281 C 134.078125 425.230469 136.101562 422.828125 138.847656 422.523438 L 142.253906 422.148438 L 202.992188 342.226562 L 293.832031 307.625 L 382.773438 337.398438 L 401.359375 375.9375 L 410.195312 375.9375 C 410.953125 375.9375 411.609375 376.21875 412.167969 376.78125 C 412.71875 377.335938 413 378.003906 413 378.773438 L 413 396.378906 C 413 397.152344 412.726562 397.816406 412.179688 398.371094 L 426.65625 428.390625 L 430.753906 429.683594 C 433.027344 430.402344 434.527344 432.574219 434.390625 434.960938 Z M 481.355469 149.164062 L 492.046875 149.164062 C 492.894531 149.164062 493.582031 148.480469 493.582031 147.632812 L 493.582031 145.761719 L 479.824219 145.761719 L 479.824219 147.632812 C 479.824219 148.480469 480.507812 149.164062 481.355469 149.164062 Z M 322.921875 111.367188 C 325.605469 111.367188 327.789062 109.183594 327.789062 106.5 C 327.789062 103.816406 325.605469 101.632812 322.921875 101.632812 C 320.242188 101.632812 318.054688 103.816406 318.054688 106.5 C 318.054688 109.183594 320.242188 111.367188 322.921875 111.367188 Z M 317.582031 71.015625 L 199.171875 71.015625 L 199.171875 141.984375 L 317.582031 141.984375 Z M 454.824219 388.671875 C 454.410156 388.671875 454.0625 388.820312 453.777344 389.109375 C 453.492188 389.398438 453.351562 389.742188 453.351562 390.140625 L 453.351562 396.269531 L 450.410156 396.269531 L 450.410156 375.972656 L 443.019531 375.972656 C 442.609375 375.972656 442.261719 376.113281 441.972656 376.398438 C 441.6875 376.691406 441.546875 377.039062 441.546875 377.445312 C 441.546875 377.851562 441.6875 378.199219 441.972656 378.484375 C 442.261719 378.769531 442.609375 378.914062 443.019531 378.914062 L 447.464844 378.914062 L 447.464844 396.269531 L 442.949219 396.269531 C 442.539062 396.269531 442.191406 396.410156 441.902344 396.691406 C 441.617188 396.972656 441.476562 397.3125 441.476562 397.710938 C 441.476562 398.117188 441.617188 398.46875 441.902344 398.769531 C 442.191406 399.0625 442.539062 399.214844 442.949219 399.214844 L 454.824219 399.214844 C 455.230469 399.214844 455.578125 399.074219 455.863281 398.78125 C 456.148438 398.496094 456.292969 398.148438 456.292969 397.742188 L 456.292969 390.140625 C 456.292969 389.730469 456.148438 389.386719 455.863281 389.101562 C 455.578125 388.8125 455.230469 388.671875 454.824219 388.671875 Z M 431.757812 378.914062 L 422.792969 378.914062 L 422.792969 396.269531 L 431.757812 396.269531 Z M 433.832031 376.78125 C 434.386719 377.335938 434.667969 378.003906 434.667969 378.773438 L 434.667969 396.378906 C 434.667969 397.160156 434.386719 397.828125 433.832031 398.378906 C 433.273438 398.9375 432.609375 399.214844 431.828125 399.214844 L 422.683594 399.214844 C 421.890625 399.214844 421.222656 398.9375 420.667969 398.378906 C 420.121094 397.828125 419.84375 397.160156 419.84375 396.378906 L 419.84375 378.773438 C 419.84375 378.003906 420.125 377.335938 420.6875 376.78125 C 421.246094 376.21875 421.910156 375.9375 422.683594 375.9375 L 431.859375 375.9375 C 432.621094 375.9375 433.273438 376.21875 433.832031 376.78125 Z M 544.070312 319.261719 L 544.070312 324.621094 L 541.128906 324.621094 L 541.128906 316.25 C 540.175781 315.34375 539.199219 314.480469 538.1875 313.65625 L 538.1875 324.621094 L 533.667969 324.621094 C 533.257812 324.621094 532.910156 324.757812 532.625 325.039062 C 532.339844 325.320312 532.199219 325.660156 532.199219 326.058594 C 532.199219 326.464844 532.339844 326.816406 532.625 327.117188 C 532.910156 327.410156 533.257812 327.5625 533.667969 327.5625 L 545.539062 327.5625 C 545.949219 327.5625 546.300781 327.421875 546.585938 327.128906 C 546.871094 326.84375 547.011719 326.496094 547.011719 326.089844 L 547.011719 322.777344 C 546.066406 321.558594 545.085938 320.382812 544.070312 319.261719 Z M 522.476562 307.261719 L 513.507812 307.261719 L 513.507812 324.621094 L 522.476562 324.621094 Z M 525.210938 306.152344 C 525.320312 306.457031 525.382812 306.777344 525.382812 307.125 L 525.382812 324.726562 C 525.382812 325.507812 525.109375 326.175781 524.554688 326.726562 C 523.996094 327.285156 523.328125 327.5625 522.546875 327.5625 L 513.402344 327.5625 C 512.609375 327.5625 511.941406 327.285156 511.390625 326.726562 C 510.839844 326.175781 510.566406 325.507812 510.566406 324.726562 L 510.566406 307.125 C 510.566406 306.351562 510.847656 305.683594 511.40625 305.128906 C 511.96875 304.566406 512.632812 304.285156 513.402344 304.285156 L 519.28125 304.285156 C 519.652344 304.390625 520.019531 304.5 520.40625 304.601562 C 522.058594 305.039062 523.65625 305.5625 525.210938 306.152344 Z M 500.808594 307.261719 L 491.84375 307.261719 L 491.84375 324.621094 L 500.808594 324.621094 Z M 502.886719 305.128906 C 503.441406 305.683594 503.71875 306.351562 503.71875 307.125 L 503.71875 324.726562 C 503.71875 325.507812 503.441406 326.175781 502.886719 326.726562 C 502.332031 327.285156 501.664062 327.5625 500.878906 327.5625 L 491.742188 327.5625 C 490.945312 327.5625 490.273438 327.285156 489.726562 326.726562 C 489.179688 326.175781 488.902344 325.507812 488.902344 324.726562 L 488.902344 307.125 C 488.902344 306.351562 489.183594 305.683594 489.746094 305.128906 C 490.304688 304.566406 490.96875 304.285156 491.742188 304.285156 L 500.917969 304.285156 C 501.675781 304.285156 502.332031 304.566406 502.886719 305.128906 Z M 480.550781 317.019531 C 480.140625 317.019531 479.792969 317.167969 479.503906 317.457031 C 479.21875 317.746094 479.078125 318.09375 479.078125 318.488281 L 479.078125 324.621094 L 476.136719 324.621094 L 476.136719 304.320312 L 468.746094 304.320312 C 468.332031 304.320312 467.992188 304.460938 467.699219 304.75 C 467.414062 305.039062 467.273438 305.386719 467.273438 305.792969 C 467.273438 306.199219 467.414062 306.546875 467.699219 306.832031 C 467.992188 307.117188 468.332031 307.261719 468.746094 307.261719 L 473.195312 307.261719 L 473.195312 324.621094 L 468.675781 324.621094 C 468.265625 324.621094 467.917969 324.757812 467.628906 325.039062 C 467.347656 325.320312 467.203125 325.660156 467.203125 326.058594 C 467.203125 326.464844 467.347656 326.816406 467.628906 327.117188 C 467.917969 327.410156 468.265625 327.5625 468.675781 327.5625 L 480.550781 327.5625 C 480.957031 327.5625 481.304688 327.421875 481.589844 327.128906 C 481.875 326.84375 482.019531 326.496094 482.019531 326.089844 L 482.019531 318.488281 C 482.019531 318.078125 481.875 317.734375 481.589844 317.449219 C 481.304688 317.160156 480.957031 317.019531 480.550781 317.019531 Z M 457.484375 307.261719 L 448.519531 307.261719 L 448.519531 324.621094 L 457.484375 324.621094 Z M 459.558594 305.128906 C 460.113281 305.683594 460.386719 306.351562 460.386719 307.125 L 460.386719 324.726562 C 460.386719 325.507812 460.113281 326.175781 459.558594 326.726562 C 459 327.285156 458.335938 327.5625 457.554688 327.5625 L 448.410156 327.5625 C 447.617188 327.5625 446.945312 327.285156 446.394531 326.726562 C 445.847656 326.175781 445.570312 325.507812 445.570312 324.726562 L 445.570312 307.125 C 445.570312 306.351562 445.851562 305.683594 446.414062 305.128906 C 446.972656 304.566406 447.636719 304.285156 448.410156 304.285156 L 457.585938 304.285156 C 458.347656 304.285156 459 304.566406 459.558594 305.128906 Z M 422.582031 240.09375 L 431.542969 240.09375 L 431.542969 222.738281 L 422.582031 222.738281 Z M 422.472656 219.757812 L 431.648438 219.757812 C 432.410156 219.757812 433.0625 220.039062 433.621094 220.601562 C 434.175781 221.160156 434.449219 221.828125 434.449219 222.597656 L 434.449219 240.203125 C 434.449219 240.984375 434.175781 241.648438 433.621094 242.207031 C 433.0625 242.757812 432.398438 243.035156 431.617188 243.035156 L 422.472656 243.035156 C 421.679688 243.035156 421.007812 242.757812 420.457031 242.207031 C 419.910156 241.648438 419.632812 240.984375 419.632812 240.203125 L 419.632812 222.597656 C 419.632812 221.828125 419.914062 221.160156 420.476562 220.601562 C 421.035156 220.039062 421.699219 219.757812 422.472656 219.757812 Z M 399.40625 240.09375 C 399 240.09375 398.648438 240.234375 398.363281 240.515625 C 398.078125 240.796875 397.9375 241.132812 397.9375 241.53125 C 397.9375 241.941406 398.078125 242.292969 398.363281 242.589844 C 398.648438 242.886719 399 243.035156 399.40625 243.035156 L 411.28125 243.035156 C 411.691406 243.035156 412.035156 242.894531 412.320312 242.609375 C 412.609375 242.324219 412.753906 241.976562 412.753906 241.570312 L 412.753906 233.96875 C 412.753906 233.554688 412.609375 233.207031 412.320312 232.921875 C 412.035156 232.636719 411.691406 232.496094 411.28125 232.496094 C 410.871094 232.496094 410.523438 232.640625 410.238281 232.933594 C 409.953125 233.226562 409.8125 233.570312 409.8125 233.96875 L 409.8125 240.09375 L 406.871094 240.09375 L 406.871094 219.796875 L 399.476562 219.796875 C 399.070312 219.796875 398.71875 219.941406 398.4375 220.226562 C 398.148438 220.511719 398.007812 220.859375 398.007812 221.269531 C 398.007812 221.679688 398.148438 222.027344 398.4375 222.308594 C 398.71875 222.597656 399.070312 222.738281 399.476562 222.738281 L 403.925781 222.738281 L 403.925781 240.09375 Z M 379.25 240.09375 L 388.214844 240.09375 L 388.214844 222.738281 L 379.25 222.738281 Z M 379.140625 219.757812 L 388.320312 219.757812 C 389.078125 219.757812 389.734375 220.039062 390.292969 220.601562 C 390.84375 221.160156 391.121094 221.828125 391.121094 222.597656 L 391.121094 240.203125 C 391.121094 240.984375 390.84375 241.648438 390.292969 242.207031 C 389.734375 242.757812 389.070312 243.035156 388.285156 243.035156 L 379.140625 243.035156 C 378.351562 243.035156 377.675781 242.757812 377.128906 242.207031 C 376.582031 241.648438 376.308594 240.984375 376.308594 240.203125 L 376.308594 222.597656 C 376.308594 221.828125 376.585938 221.160156 377.148438 220.601562 C 377.710938 220.039062 378.375 219.757812 379.140625 219.757812 Z M 363.539062 219.796875 L 356.148438 219.796875 C 355.738281 219.796875 355.394531 219.941406 355.105469 220.226562 C 354.820312 220.511719 354.675781 220.859375 354.675781 221.269531 C 354.675781 221.679688 354.820312 222.027344 355.105469 222.308594 C 355.394531 222.597656 355.738281 222.738281 356.148438 222.738281 L 360.597656 222.738281 L 360.597656 240.09375 L 356.078125 240.09375 C 355.667969 240.09375 355.324219 240.234375 355.035156 240.515625 C 354.75 240.796875 354.605469 241.132812 354.605469 241.53125 C 354.605469 241.941406 354.75 242.292969 355.035156 242.589844 C 355.324219 242.886719 355.667969 243.035156 356.078125 243.035156 L 367.953125 243.035156 C 368.359375 243.035156 368.710938 242.894531 368.992188 242.609375 C 369.28125 242.324219 369.421875 241.976562 369.421875 241.570312 L 369.421875 233.96875 C 369.421875 233.554688 369.28125 233.207031 368.992188 232.921875 C 368.710938 232.636719 368.359375 232.496094 367.953125 232.496094 C 367.542969 232.496094 367.199219 232.640625 366.910156 232.933594 C 366.625 233.226562 366.480469 233.570312 366.480469 233.96875 L 366.480469 240.09375 L 363.539062 240.09375 Z M 335.917969 240.09375 L 344.886719 240.09375 L 344.886719 222.738281 L 335.917969 222.738281 Z M 335.8125 219.757812 L 344.992188 219.757812 C 345.753906 219.757812 346.40625 220.039062 346.960938 220.601562 C 347.519531 221.160156 347.792969 221.828125 347.792969 222.597656 L 347.792969 240.203125 C 347.792969 240.984375 347.519531 241.648438 346.960938 242.207031 C 346.40625 242.757812 345.738281 243.035156 344.957031 243.035156 L 335.8125 243.035156 C 335.019531 243.035156 334.351562 242.757812 333.800781 242.207031 C 333.25 241.648438 332.976562 240.984375 332.976562 240.203125 L 332.976562 222.597656 C 332.976562 221.828125 333.257812 221.160156 333.816406 220.601562 C 334.378906 220.039062 335.042969 219.757812 335.8125 219.757812 Z M 312.75 240.09375 C 312.339844 240.09375 311.992188 240.234375 311.707031 240.515625 C 311.421875 240.796875 311.28125 241.132812 311.28125 241.53125 C 311.28125 241.941406 311.421875 242.292969 311.707031 242.589844 C 311.992188 242.886719 312.339844 243.035156 312.75 243.035156 L 324.621094 243.035156 C 325.027344 243.035156 325.378906 242.894531 325.664062 242.609375 C 325.953125 242.324219 326.097656 241.976562 326.097656 241.570312 L 326.097656 233.96875 C 326.097656 233.554688 325.953125 233.207031 325.664062 232.921875 C 325.378906 232.636719 325.027344 232.496094 324.621094 232.496094 C 324.214844 232.496094 323.867188 232.640625 323.582031 232.933594 C 323.296875 233.226562 323.148438 233.570312 323.148438 233.96875 L 323.148438 240.09375 L 320.207031 240.09375 L 320.207031 219.796875 L 312.816406 219.796875 C 312.410156 219.796875 312.0625 219.941406 311.777344 220.226562 C 311.492188 220.511719 311.351562 220.859375 311.351562 221.269531 C 311.351562 221.679688 311.492188 222.027344 311.777344 222.308594 C 312.0625 222.597656 312.410156 222.738281 312.816406 222.738281 L 317.265625 222.738281 L 317.265625 240.09375 Z M 291.085938 240.09375 C 290.671875 240.09375 290.328125 240.234375 290.039062 240.515625 C 289.761719 240.796875 289.613281 241.132812 289.613281 241.53125 C 289.613281 241.941406 289.761719 242.292969 290.039062 242.589844 C 290.328125 242.886719 290.671875 243.035156 291.085938 243.035156 L 302.960938 243.035156 C 303.367188 243.035156 303.714844 242.894531 304 242.609375 C 304.285156 242.324219 304.429688 241.976562 304.429688 241.570312 L 304.429688 233.96875 C 304.429688 233.554688 304.285156 233.207031 304 232.921875 C 303.714844 232.636719 303.367188 232.496094 302.960938 232.496094 C 302.546875 232.496094 302.203125 232.640625 301.914062 232.933594 C 301.628906 233.226562 301.484375 233.570312 301.484375 233.96875 L 301.484375 240.09375 L 298.542969 240.09375 L 298.542969 219.796875 L 291.15625 219.796875 C 290.742188 219.796875 290.398438 219.941406 290.117188 220.226562 C 289.824219 220.511719 289.683594 220.859375 289.683594 221.269531 C 289.683594 221.679688 289.824219 222.027344 290.117188 222.308594 C 290.398438 222.597656 290.742188 222.738281 291.15625 222.738281 L 295.605469 222.738281 L 295.605469 240.09375 Z M 270.929688 240.09375 L 279.894531 240.09375 L 279.894531 222.738281 L 270.929688 222.738281 Z M 268.808594 242.207031 C 268.257812 241.648438 267.988281 240.984375 267.988281 240.203125 L 267.988281 222.597656 C 267.988281 221.828125 268.261719 221.160156 268.824219 220.601562 C 269.386719 220.039062 270.046875 219.757812 270.820312 219.757812 L 279.996094 219.757812 C 280.757812 219.757812 281.414062 220.039062 281.96875 220.601562 C 282.523438 221.160156 282.800781 221.828125 282.800781 222.597656 L 282.800781 240.203125 C 282.800781 240.984375 282.523438 241.648438 281.96875 242.207031 C 281.414062 242.757812 280.746094 243.035156 279.964844 243.035156 L 270.820312 243.035156 C 270.03125 243.035156 269.355469 242.757812 268.808594 242.207031 Z M 513.546875 181.425781 L 504.574219 181.425781 L 504.574219 198.78125 L 513.546875 198.78125 Z M 513.617188 201.722656 L 504.472656 201.722656 C 503.679688 201.722656 503.007812 201.449219 502.457031 200.890625 C 501.910156 200.339844 501.632812 199.667969 501.632812 198.886719 L 501.632812 181.28125 C 501.632812 180.515625 501.914062 179.847656 502.476562 179.285156 C 503.035156 178.730469 503.699219 178.449219 504.472656 178.449219 L 513.648438 178.449219 C 514.410156 178.449219 515.0625 178.730469 515.621094 179.285156 C 516.175781 179.847656 516.449219 180.515625 516.449219 181.28125 L 516.449219 198.886719 C 516.449219 199.667969 516.175781 200.339844 515.621094 200.890625 C 515.0625 201.449219 514.398438 201.722656 513.617188 201.722656 Z M 492.242188 191.617188 C 491.953125 191.910156 491.8125 192.257812 491.8125 192.652344 L 491.8125 198.78125 L 488.871094 198.78125 L 488.871094 178.480469 L 481.476562 178.480469 C 481.070312 178.480469 480.71875 178.625 480.4375 178.910156 C 480.148438 179.199219 480.007812 179.542969 480.007812 179.957031 C 480.007812 180.363281 480.148438 180.710938 480.4375 180.996094 C 480.71875 181.28125 481.070312 181.425781 481.476562 181.425781 L 485.925781 181.425781 L 485.925781 198.78125 L 481.40625 198.78125 C 481 198.78125 480.652344 198.921875 480.363281 199.203125 C 480.082031 199.480469 479.9375 199.824219 479.9375 200.214844 C 479.9375 200.628906 480.082031 200.980469 480.363281 201.273438 C 480.652344 201.574219 481 201.722656 481.40625 201.722656 L 493.28125 201.722656 C 493.691406 201.722656 494.035156 201.578125 494.328125 201.292969 C 494.609375 201.007812 494.753906 200.660156 494.753906 200.253906 L 494.753906 192.652344 C 494.753906 192.242188 494.609375 191.898438 494.328125 191.609375 C 494.035156 191.320312 493.691406 191.179688 493.28125 191.179688 C 492.875 191.179688 492.527344 191.324219 492.242188 191.617188 Z M 470.214844 181.425781 L 461.25 181.425781 L 461.25 198.78125 L 470.214844 198.78125 Z M 470.285156 201.722656 L 461.140625 201.722656 C 460.351562 201.722656 459.679688 201.449219 459.128906 200.890625 C 458.582031 200.339844 458.308594 199.667969 458.308594 198.886719 L 458.308594 181.28125 C 458.308594 180.515625 458.585938 179.847656 459.148438 179.285156 C 459.710938 178.730469 460.375 178.449219 461.140625 178.449219 L 470.320312 178.449219 C 471.078125 178.449219 471.738281 178.730469 472.292969 179.285156 C 472.847656 179.847656 473.125 180.515625 473.125 181.28125 L 473.125 198.886719 C 473.125 199.667969 472.847656 200.339844 472.292969 200.890625 C 471.738281 201.449219 471.070312 201.722656 470.285156 201.722656 Z M 450.996094 201.292969 C 451.28125 201.007812 451.421875 200.660156 451.421875 200.253906 L 451.421875 192.652344 C 451.421875 192.242188 451.28125 191.898438 450.996094 191.609375 C 450.710938 191.320312 450.363281 191.179688 449.953125 191.179688 C 449.542969 191.179688 449.199219 191.324219 448.910156 191.617188 C 448.625 191.910156 448.480469 192.257812 448.480469 192.652344 L 448.480469 198.78125 L 445.539062 198.78125 L 445.539062 178.480469 L 438.148438 178.480469 C 437.738281 178.480469 437.394531 178.625 437.105469 178.910156 C 436.820312 179.199219 436.675781 179.542969 436.675781 179.957031 C 436.675781 180.363281 436.820312 180.710938 437.105469 180.996094 C 437.394531 181.28125 437.738281 181.425781 438.148438 181.425781 L 442.597656 181.425781 L 442.597656 198.78125 L 438.078125 198.78125 C 437.667969 198.78125 437.324219 198.921875 437.035156 199.203125 C 436.75 199.480469 436.605469 199.824219 436.605469 200.214844 C 436.605469 200.628906 436.75 200.980469 437.035156 201.273438 C 437.324219 201.574219 437.667969 201.722656 438.078125 201.722656 L 449.953125 201.722656 C 450.363281 201.722656 450.710938 201.578125 450.996094 201.292969 Z M 426.886719 181.425781 L 417.917969 181.425781 L 417.917969 198.78125 L 426.886719 198.78125 Z M 426.992188 178.449219 C 427.753906 178.449219 428.40625 178.730469 428.960938 179.285156 C 429.519531 179.847656 429.792969 180.515625 429.792969 181.28125 L 429.792969 198.886719 C 429.792969 199.667969 429.519531 200.339844 428.960938 200.890625 C 428.40625 201.449219 427.738281 201.722656 426.957031 201.722656 L 417.816406 201.722656 C 417.019531 201.722656 416.351562 201.449219 415.800781 200.890625 C 415.25 200.339844 414.976562 199.667969 414.976562 198.886719 L 414.976562 181.28125 C 414.976562 180.515625 415.257812 179.847656 415.816406 179.285156 C 416.378906 178.730469 417.042969 178.449219 417.816406 178.449219 Z M 394.75 198.78125 C 394.34375 198.78125 393.992188 198.921875 393.707031 199.203125 C 393.421875 199.480469 393.28125 199.824219 393.28125 200.214844 C 393.28125 200.628906 393.421875 200.980469 393.707031 201.273438 C 393.992188 201.574219 394.34375 201.722656 394.75 201.722656 L 406.621094 201.722656 C 407.035156 201.722656 407.378906 201.578125 407.664062 201.292969 C 407.953125 201.007812 408.097656 200.660156 408.097656 200.253906 L 408.097656 192.652344 C 408.097656 192.242188 407.953125 191.898438 407.664062 191.609375 C 407.378906 191.320312 407.035156 191.179688 406.621094 191.179688 C 406.214844 191.179688 405.867188 191.324219 405.582031 191.617188 C 405.296875 191.910156 405.148438 192.257812 405.148438 192.652344 L 405.148438 198.78125 L 402.207031 198.78125 L 402.207031 178.480469 L 394.816406 178.480469 C 394.410156 178.480469 394.0625 178.625 393.777344 178.910156 C 393.492188 179.199219 393.351562 179.542969 393.351562 179.957031 C 393.351562 180.363281 393.492188 180.710938 393.777344 180.996094 C 394.0625 181.28125 394.410156 181.425781 394.816406 181.425781 L 399.265625 181.425781 L 399.265625 198.78125 Z M 383.914062 191.617188 C 383.628906 191.910156 383.488281 192.257812 383.488281 192.652344 L 383.488281 198.78125 L 380.542969 198.78125 L 380.542969 178.480469 L 373.15625 178.480469 C 372.742188 178.480469 372.398438 178.625 372.117188 178.910156 C 371.824219 179.199219 371.683594 179.542969 371.683594 179.957031 C 371.683594 180.363281 371.824219 180.710938 372.117188 180.996094 C 372.398438 181.28125 372.742188 181.425781 373.15625 181.425781 L 377.605469 181.425781 L 377.605469 198.78125 L 373.085938 198.78125 C 372.679688 198.78125 372.328125 198.921875 372.039062 199.203125 C 371.761719 199.480469 371.613281 199.824219 371.613281 200.214844 C 371.613281 200.628906 371.761719 200.980469 372.039062 201.273438 C 372.328125 201.574219 372.679688 201.722656 373.085938 201.722656 L 384.960938 201.722656 C 385.367188 201.722656 385.714844 201.578125 386 201.292969 C 386.285156 201.007812 386.429688 200.660156 386.429688 200.253906 L 386.429688 192.652344 C 386.429688 192.242188 386.285156 191.898438 386 191.609375 C 385.714844 191.320312 385.367188 191.179688 384.960938 191.179688 C 384.554688 191.179688 384.203125 191.324219 383.914062 191.617188 Z M 361.894531 181.425781 L 352.929688 181.425781 L 352.929688 198.78125 L 361.894531 198.78125 Z M 361.996094 178.449219 C 362.757812 178.449219 363.414062 178.730469 363.96875 179.285156 C 364.523438 179.847656 364.800781 180.515625 364.800781 181.28125 L 364.800781 198.886719 C 364.800781 199.667969 364.523438 200.339844 363.96875 200.890625 C 363.414062 201.449219 362.746094 201.722656 361.964844 201.722656 L 352.820312 201.722656 C 352.03125 201.722656 351.355469 201.449219 350.808594 200.890625 C 350.257812 200.339844 349.980469 199.667969 349.980469 198.886719 L 349.980469 181.28125 C 349.980469 180.515625 350.261719 179.847656 350.824219 179.285156 C 351.382812 178.730469 352.046875 178.449219 352.820312 178.449219 Z M 416.964844 168.253906 L 425.929688 168.253906 L 425.929688 150.898438 L 416.964844 150.898438 Z M 414.84375 170.367188 C 414.292969 169.816406 414.023438 169.144531 414.023438 168.363281 L 414.023438 150.757812 C 414.023438 149.992188 414.304688 149.324219 414.859375 148.761719 C 415.421875 148.207031 416.089844 147.925781 416.855469 147.925781 L 426.039062 147.925781 C 426.792969 147.925781 427.453125 148.207031 428.003906 148.761719 C 428.558594 149.324219 428.839844 149.992188 428.839844 150.757812 L 428.839844 168.363281 C 428.839844 169.144531 428.558594 169.816406 428.003906 170.367188 C 427.453125 170.925781 426.78125 171.203125 426 171.203125 L 416.855469 171.203125 C 416.066406 171.203125 415.394531 170.925781 414.84375 170.367188 Z M 393.796875 168.253906 C 393.382812 168.253906 393.035156 168.398438 392.75 168.679688 C 392.464844 168.957031 392.320312 169.292969 392.320312 169.691406 C 392.320312 170.101562 392.464844 170.457031 392.75 170.75 C 393.035156 171.050781 393.382812 171.203125 393.796875 171.203125 L 405.664062 171.203125 C 406.074219 171.203125 406.425781 171.054688 406.710938 170.769531 C 406.996094 170.484375 407.140625 170.136719 407.140625 169.730469 L 407.140625 162.128906 C 407.140625 161.71875 406.996094 161.375 406.710938 161.085938 C 406.425781 160.796875 406.074219 160.65625 405.664062 160.65625 C 405.257812 160.65625 404.910156 160.800781 404.625 161.09375 C 404.339844 161.386719 404.195312 161.730469 404.195312 162.128906 L 404.195312 168.253906 L 401.253906 168.253906 L 401.253906 149.164062 L 410.972656 149.164062 C 411.816406 149.164062 412.503906 148.480469 412.503906 147.632812 L 412.503906 145.761719 L 398.746094 145.761719 L 398.746094 147.632812 C 398.746094 147.746094 398.792969 147.847656 398.816406 147.957031 L 393.859375 147.957031 C 393.453125 147.957031 393.105469 148.101562 392.820312 148.386719 C 392.535156 148.675781 392.394531 149.023438 392.394531 149.433594 C 392.394531 149.839844 392.535156 150.1875 392.820312 150.472656 C 393.105469 150.757812 393.453125 150.898438 393.859375 150.898438 L 398.3125 150.898438 L 398.3125 168.253906 Z M 373.632812 168.253906 L 382.605469 168.253906 L 382.605469 150.898438 L 373.632812 150.898438 Z M 371.515625 170.367188 C 370.96875 169.816406 370.691406 169.144531 370.691406 168.363281 L 370.691406 150.757812 C 370.691406 149.992188 370.972656 149.324219 371.535156 148.761719 C 372.09375 148.207031 372.757812 147.925781 373.53125 147.925781 L 382.707031 147.925781 C 383.464844 147.925781 384.121094 148.207031 384.675781 148.761719 C 385.230469 149.324219 385.507812 149.992188 385.507812 150.757812 L 385.507812 168.363281 C 385.507812 169.144531 385.230469 169.816406 384.675781 170.367188 C 384.121094 170.925781 383.457031 171.203125 382.667969 171.203125 L 373.53125 171.203125 C 372.734375 171.203125 372.0625 170.925781 371.515625 170.367188 Z M 351.972656 168.253906 L 360.933594 168.253906 L 360.933594 150.898438 L 351.972656 150.898438 Z M 349.851562 170.367188 C 349.304688 169.816406 349.027344 169.144531 349.027344 168.363281 L 349.027344 150.757812 C 349.027344 149.992188 349.308594 149.324219 349.871094 148.761719 C 350.425781 148.207031 351.09375 147.925781 351.867188 147.925781 L 361.042969 147.925781 C 361.800781 147.925781 362.457031 148.207031 363.015625 148.761719 C 363.566406 149.324219 363.84375 149.992188 363.84375 150.757812 L 363.84375 168.363281 C 363.84375 169.144531 363.566406 169.816406 363.015625 170.367188 C 362.457031 170.925781 361.792969 171.203125 361.007812 171.203125 L 351.867188 171.203125 C 351.074219 171.203125 350.398438 170.925781 349.851562 170.367188 Z M 330.308594 168.253906 L 339.273438 168.253906 L 339.273438 150.898438 L 330.308594 150.898438 Z M 327.363281 150.757812 C 327.363281 149.992188 327.640625 149.324219 328.203125 148.761719 C 328.761719 148.207031 329.425781 147.925781 330.199219 147.925781 L 339.375 147.925781 C 340.136719 147.925781 340.792969 148.207031 341.347656 148.761719 C 341.902344 149.324219 342.183594 149.992188 342.183594 150.757812 L 342.183594 168.363281 C 342.183594 169.144531 341.902344 169.816406 341.347656 170.367188 C 340.792969 170.925781 340.125 171.203125 339.34375 171.203125 L 330.199219 171.203125 C 329.410156 171.203125 328.738281 170.925781 328.1875 170.367188 C 327.636719 169.816406 327.363281 169.144531 327.363281 168.363281 Z M 317.539062 168.253906 L 314.597656 168.253906 L 314.597656 147.957031 L 307.203125 147.957031 C 306.796875 147.957031 306.449219 148.101562 306.164062 148.386719 C 305.878906 148.675781 305.734375 149.023438 305.734375 149.433594 C 305.734375 149.839844 305.878906 150.1875 306.164062 150.472656 C 306.449219 150.757812 306.796875 150.898438 307.203125 150.898438 L 311.65625 150.898438 L 311.65625 168.253906 L 307.132812 168.253906 C 306.726562 168.253906 306.378906 168.398438 306.09375 168.679688 C 305.808594 168.957031 305.664062 169.292969 305.664062 169.691406 C 305.664062 170.101562 305.808594 170.457031 306.09375 170.75 C 306.378906 171.050781 306.726562 171.203125 307.132812 171.203125 L 319.007812 171.203125 C 319.417969 171.203125 319.761719 171.054688 320.050781 170.769531 C 320.339844 170.484375 320.480469 170.136719 320.480469 169.730469 L 320.480469 162.128906 C 320.480469 161.71875 320.339844 161.375 320.050781 161.085938 C 319.761719 160.796875 319.417969 160.65625 319.007812 160.65625 C 318.601562 160.65625 318.253906 160.800781 317.96875 161.09375 C 317.679688 161.386719 317.539062 161.730469 317.539062 162.128906 Z M 285.46875 168.253906 C 285.0625 168.253906 284.714844 168.398438 284.429688 168.679688 C 284.144531 168.957031 284 169.292969 284 169.691406 C 284 170.101562 284.144531 170.457031 284.429688 170.75 C 284.714844 171.050781 285.0625 171.203125 285.46875 171.203125 L 297.34375 171.203125 C 297.75 171.203125 298.097656 171.054688 298.386719 170.769531 C 298.675781 170.484375 298.816406 170.136719 298.816406 169.730469 L 298.816406 162.128906 C 298.816406 161.71875 298.675781 161.375 298.386719 161.085938 C 298.097656 160.796875 297.75 160.65625 297.34375 160.65625 C 296.9375 160.65625 296.589844 160.800781 296.304688 161.09375 C 296.019531 161.386719 295.871094 161.730469 295.871094 162.128906 L 295.871094 168.253906 L 292.929688 168.253906 L 292.929688 147.957031 L 285.539062 147.957031 C 285.132812 147.957031 284.785156 148.101562 284.5 148.386719 C 284.214844 148.675781 284.070312 149.023438 284.070312 149.433594 C 284.070312 149.839844 284.214844 150.1875 284.5 150.472656 C 284.785156 150.757812 285.132812 150.898438 285.539062 150.898438 L 289.988281 150.898438 L 289.988281 168.253906 Z M 262.371094 158.75 L 262.371094 168.363281 C 262.371094 169.144531 262.640625 169.816406 263.195312 170.367188 C 263.742188 170.925781 264.414062 171.203125 265.203125 171.203125 L 274.347656 171.203125 C 275.128906 171.203125 275.800781 170.925781 276.351562 170.367188 C 276.910156 169.816406 277.1875 169.144531 277.1875 168.363281 L 277.1875 150.757812 C 277.1875 149.992188 276.910156 149.324219 276.351562 148.761719 C 276.175781 148.582031 275.976562 148.441406 275.773438 148.3125 C 274.601562 149.160156 273.441406 150.027344 272.273438 150.898438 L 274.277344 150.898438 L 274.277344 168.253906 L 265.3125 168.253906 L 265.3125 156.335938 C 264.332031 157.128906 263.347656 157.933594 262.371094 158.75 Z M 56.1875 220.195312 L 61.335938 220.195312 L 61.335938 211.488281 L 62.140625 211.488281 L 62.140625 220.195312 L 66.765625 220.195312 C 68.195312 220.195312 69.382812 219.789062 70.304688 218.980469 C 71.257812 218.148438 71.757812 217 71.757812 215.664062 C 71.757812 214.621094 71.445312 213.730469 70.851562 213.054688 C 71.417969 212.269531 71.566406 211.445312 71.566406 210.792969 C 71.566406 209.519531 71.074219 208.40625 70.148438 207.574219 C 69.230469 206.753906 67.878906 206.359375 66.019531 206.359375 L 54.441406 206.359375 L 54.441406 211.488281 L 56.1875 211.488281 Z M 48.84375 211.277344 L 47.40625 211.277344 L 47.40625 206.359375 L 53.835938 206.359375 L 53.835938 220.195312 L 48.84375 220.195312 L 48.84375 211.277344 " fill-opacity="1" fill-rule="nonzero"/><path fill="#edbb87" d="M 316.855469 301.847656 L 316.855469 316.582031 L 323.980469 322.117188 C 323.980469 322.117188 299.601562 348.945312 290.789062 348.945312 C 282.035156 348.945312 258.070312 324.238281 258.070312 324.238281 L 266.183594 318.382812 L 266.183594 303.511719 C 262.683594 299.898438 260.476562 295.09375 260.214844 289.082031 L 259.570312 273.292969 C 254.847656 273.722656 247.25 260.152344 251.320312 253.753906 C 253.625 250.132812 256.566406 252.570312 258.847656 255.710938 L 258.027344 235.59375 C 257.714844 228.570312 263.324219 222.710938 270.351562 222.710938 L 311.238281 222.710938 C 318.265625 222.710938 323.871094 228.570312 323.5625 235.59375 L 322.523438 261.003906 C 324.074219 256.742188 327.703125 248.5 331.046875 253.753906 C 335.347656 260.511719 326.621094 275.289062 322.03125 273.082031 L 321.375 289.082031 C 321.148438 294.214844 319.5 298.460938 316.855469 301.847656 Z M 179.214844 462.988281 L 138.792969 439.605469 L 121.261719 464.953125 L 121.226562 464.949219 L 114.339844 475.140625 C 107.640625 485.0625 118.003906 507.257812 129.914062 508.492188 L 236.597656 511.207031 L 237.164062 505.703125 L 206.214844 505.703125 L 205.226562 495.457031 C 204.863281 493.851562 205.917969 492.285156 207.355469 492.285156 L 238.550781 492.285156 L 240.105469 477.21875 L 173.761719 470.375 Z M 423.066406 509.449219 L 361.347656 501.902344 L 362.144531 494.5 C 362.390625 493.378906 361.660156 492.285156 360.652344 492.285156 L 317.328125 492.285156 L 318.652344 462.359375 L 383.652344 465.246094 L 380.597656 459.605469 L 427.503906 444.117188 L 442.214844 476.355469 L 443.359375 478.75 C 448.535156 489.546875 435.027344 509.980469 423.066406 509.449219 " fill-opacity="1" fill-rule="nonzero"/><g clip-path="url(#2f2a80b58d)"><path fill="#141f35" d="M 84.851562 468.863281 L 84.851562 472.777344 C 84.851562 473.480469 85.421875 474.050781 86.125 474.050781 C 86.828125 474.050781 87.398438 473.480469 87.398438 472.777344 L 87.398438 468.863281 C 87.398438 468.164062 86.828125 467.589844 86.125 467.589844 C 85.421875 467.589844 84.851562 468.164062 84.851562 468.863281 Z M 81.277344 472.777344 L 81.277344 468.863281 C 81.277344 468.164062 80.707031 467.589844 80 467.589844 C 79.296875 467.589844 78.722656 468.164062 78.722656 468.863281 L 78.722656 472.777344 C 78.722656 473.480469 79.296875 474.050781 80 474.050781 C 80.707031 474.050781 81.277344 473.480469 81.277344 472.777344 Z M 75.15625 472.777344 L 75.15625 468.863281 C 75.15625 468.164062 74.582031 467.589844 73.878906 467.589844 C 73.171875 467.589844 72.601562 468.164062 72.601562 468.863281 L 72.601562 472.777344 C 72.601562 473.480469 73.171875 474.050781 73.878906 474.050781 C 74.582031 474.050781 75.15625 473.480469 75.15625 472.777344 Z M 69.027344 472.777344 L 69.027344 468.863281 C 69.027344 468.164062 68.457031 467.589844 67.753906 467.589844 C 67.046875 467.589844 66.480469 468.164062 66.480469 468.863281 L 66.480469 472.777344 C 66.480469 473.480469 67.046875 474.050781 67.753906 474.050781 C 68.457031 474.050781 69.027344 473.480469 69.027344 472.777344 Z M 62.90625 472.777344 L 62.90625 468.863281 C 62.90625 468.164062 62.339844 467.589844 61.628906 467.589844 C 60.929688 467.589844 60.355469 468.164062 60.355469 468.863281 L 60.355469 472.777344 C 60.355469 473.480469 60.929688 474.050781 61.628906 474.050781 C 62.339844 474.050781 62.90625 473.480469 62.90625 472.777344 Z M 56.78125 472.777344 L 56.78125 468.863281 C 56.78125 468.164062 56.210938 467.589844 55.503906 467.589844 C 54.800781 467.589844 54.230469 468.164062 54.230469 468.863281 L 54.230469 472.777344 C 54.230469 473.480469 54.800781 474.050781 55.503906 474.050781 C 56.210938 474.050781 56.78125 473.480469 56.78125 472.777344 Z M 50.660156 472.777344 L 50.660156 468.863281 C 50.660156 468.164062 50.089844 467.589844 49.386719 467.589844 C 48.679688 467.589844 48.105469 468.164062 48.105469 468.863281 L 48.105469 472.777344 C 48.105469 473.480469 48.679688 474.050781 49.386719 474.050781 C 50.089844 474.050781 50.660156 473.480469 50.660156 472.777344 Z M 44.53125 468.863281 C 44.53125 468.164062 43.960938 467.589844 43.257812 467.589844 C 42.554688 467.589844 41.984375 468.164062 41.984375 468.863281 L 41.984375 472.777344 C 41.984375 473.480469 42.554688 474.050781 43.257812 474.050781 C 43.960938 474.050781 44.53125 473.480469 44.53125 472.777344 Z M 45.417969 480.097656 L 82.53125 480.097656 C 83.238281 480.097656 83.8125 479.527344 83.8125 478.824219 C 83.8125 478.117188 83.238281 477.546875 82.53125 477.546875 L 45.417969 477.546875 C 44.710938 477.546875 44.144531 478.117188 44.144531 478.824219 C 44.144531 479.527344 44.710938 480.097656 45.417969 480.097656 Z M 307.980469 252.171875 C 305.664062 252.15625 303.390625 252.742188 301.570312 253.933594 C 300.980469 254.320312 300.816406 255.113281 301.199219 255.703125 C 301.582031 256.289062 302.375 256.457031 302.964844 256.066406 C 304.335938 255.167969 306.144531 254.65625 307.925781 254.71875 C 309.707031 254.761719 311.480469 255.332031 312.800781 256.292969 C 313.027344 256.457031 313.289062 256.535156 313.546875 256.535156 C 313.945312 256.535156 314.328125 256.355469 314.582031 256.011719 C 314.996094 255.441406 314.867188 254.644531 314.300781 254.230469 C 312.542969 252.953125 310.300781 252.222656 307.980469 252.171875 Z M 276.253906 252.4375 C 273.9375 252.296875 271.636719 252.859375 269.75 253.984375 C 269.144531 254.34375 268.945312 255.125 269.308594 255.730469 C 269.664062 256.335938 270.445312 256.53125 271.054688 256.175781 C 272.488281 255.320312 274.324219 254.898438 276.109375 254.984375 C 277.875 255.085938 279.609375 255.714844 280.863281 256.714844 C 281.097656 256.902344 281.378906 256.992188 281.65625 256.992188 C 282.03125 256.992188 282.402344 256.828125 282.652344 256.511719 C 283.09375 255.960938 283 255.160156 282.453125 254.71875 C 280.769531 253.378906 278.570312 252.570312 276.253906 252.4375 Z M 280.039062 295.886719 C 279.925781 296.578125 280.394531 297.234375 281.089844 297.351562 C 281.40625 297.402344 286.46875 298.222656 292.175781 298.222656 C 295.152344 298.222656 298.304688 297.996094 301.054688 297.332031 C 301.738281 297.164062 302.160156 296.476562 301.992188 295.792969 C 301.828125 295.109375 301.132812 294.679688 300.453125 294.855469 C 292.929688 296.679688 281.617188 294.855469 281.507812 294.835938 C 280.796875 294.710938 280.152344 295.191406 280.039062 295.886719 Z M 145.179688 425.777344 C 145.460938 425.910156 173.480469 438.605469 181.683594 447.296875 C 181.929688 447.5625 182.265625 447.695312 182.605469 447.695312 C 182.917969 447.695312 183.238281 447.585938 183.484375 447.351562 C 183.996094 446.867188 184.019531 446.0625 183.535156 445.546875 C 174.996094 436.492188 147.402344 423.984375 146.230469 423.453125 C 145.585938 423.164062 144.835938 423.453125 144.542969 424.09375 C 144.253906 424.734375 144.539062 425.492188 145.179688 425.777344 Z M 377.910156 449.585938 C 378.21875 449.585938 378.535156 449.472656 378.78125 449.242188 C 392.503906 436.433594 420.675781 430.515625 420.957031 430.453125 C 421.644531 430.3125 422.089844 429.636719 421.949219 428.949219 C 421.808594 428.257812 421.128906 427.816406 420.441406 427.957031 C 419.257812 428.199219 391.289062 434.074219 377.039062 447.378906 C 376.523438 447.855469 376.496094 448.667969 376.976562 449.179688 C 377.226562 449.449219 377.570312 449.585938 377.910156 449.585938 Z M 321.972656 244.082031 C 322.101562 241.410156 319.609375 239.386719 317.023438 240.050781 L 292.882812 246.292969 C 292.882812 246.292969 277.402344 242.515625 267.335938 240.097656 C 263.460938 239.171875 259.75 242.128906 259.785156 246.109375 L 259.875 256.875 L 260.683594 258.902344 C 261.207031 258.171875 262.066406 257.695312 263.035156 257.695312 L 285.929688 257.695312 C 287.519531 257.695312 288.820312 258.992188 288.820312 260.582031 L 288.820312 260.734375 L 295.199219 260.734375 L 295.199219 260.296875 C 295.199219 258.863281 296.363281 257.695312 297.796875 257.695312 L 321.273438 257.695312 C 321.296875 257.695312 321.3125 257.703125 321.335938 257.703125 Z M 321.324219 264.753906 C 321.296875 264.859375 321.261719 264.972656 321.238281 265.074219 L 320.984375 265.203125 L 321.214844 260.296875 L 297.796875 260.246094 L 297.75 274.410156 L 321.273438 274.457031 L 321.324219 274.410156 Z M 286.265625 260.582031 C 286.265625 260.402344 286.117188 260.246094 285.929688 260.246094 L 263.035156 260.246094 C 262.84375 260.246094 262.695312 260.402344 262.695312 260.582031 L 262.695312 274.121094 C 262.695312 274.308594 262.84375 274.457031 263.035156 274.457031 L 285.929688 274.457031 C 286.117188 274.457031 286.265625 274.308594 286.265625 274.121094 Z M 328.445312 210.5625 C 333.933594 219.359375 334.570312 233.632812 329.667969 252.324219 C 329.152344 252.035156 328.636719 252.011719 328.125 252.175781 L 323.871094 262.839844 L 323.871094 274.410156 C 323.871094 275.84375 322.707031 277.011719 321.273438 277.011719 L 297.796875 277.011719 C 296.363281 277.011719 295.199219 275.84375 295.199219 274.410156 L 295.199219 263.28125 L 288.820312 263.28125 L 288.820312 274.121094 C 288.820312 275.714844 287.519531 277.011719 285.929688 277.011719 L 263.035156 277.011719 C 261.441406 277.011719 260.144531 275.714844 260.144531 274.121094 L 260.144531 263.699219 C 259.90625 263.5625 259.710938 263.34375 259.601562 263.070312 L 255.304688 252.304688 C 254.421875 251.875 253.53125 251.804688 252.6875 252.320312 C 249.273438 242.332031 246.167969 228.464844 250.164062 217.941406 C 264.328125 180.628906 307.949219 204.824219 307.949219 204.824219 C 307.949219 204.824219 322.003906 200.246094 328.445312 210.5625 Z M 508.140625 92.273438 C 507.753906 92.863281 507.917969 93.65625 508.507812 94.039062 C 508.722656 94.183594 508.964844 94.25 509.203125 94.25 C 509.621094 94.25 510.027344 94.050781 510.273438 93.679688 C 530.296875 63.242188 511.046875 42.519531 510.847656 42.316406 C 510.359375 41.808594 509.554688 41.789062 509.046875 42.277344 C 508.535156 42.765625 508.519531 43.570312 509.007812 44.082031 C 509.191406 44.269531 527.0625 63.515625 508.140625 92.273438 Z M 499.941406 90.171875 C 500.160156 90.316406 500.402344 90.382812 500.640625 90.382812 C 501.058594 90.382812 501.464844 90.179688 501.710938 89.804688 C 517.414062 65.9375 502.28125 49.652344 502.125 49.492188 C 501.640625 48.980469 500.839844 48.960938 500.328125 49.449219 C 499.816406 49.933594 499.796875 50.742188 500.28125 51.253906 C 500.851562 51.851562 514.136719 66.285156 499.578125 88.40625 C 499.1875 88.996094 499.351562 89.785156 499.941406 90.171875 Z M 491.46875 83.175781 C 491.6875 83.324219 491.933594 83.386719 492.171875 83.386719 C 492.585938 83.386719 492.992188 83.1875 493.234375 82.8125 C 503.476562 67.257812 493.554688 56.589844 493.449219 56.484375 C 492.964844 55.976562 492.164062 55.957031 491.65625 56.441406 C 491.144531 56.925781 491.128906 57.730469 491.605469 58.242188 C 491.960938 58.617188 500.191406 67.605469 491.109375 81.410156 C 490.71875 82 490.882812 82.792969 491.46875 83.175781 Z M 455.605469 95.144531 C 455.847656 95.144531 456.089844 95.078125 456.308594 94.933594 C 456.894531 94.550781 457.058594 93.757812 456.667969 93.167969 C 437.789062 64.480469 455.0625 45.757812 455.808594 44.972656 C 456.289062 44.460938 456.269531 43.65625 455.761719 43.171875 C 455.253906 42.683594 454.449219 42.703125 453.960938 43.210938 C 453.765625 43.417969 434.511719 64.136719 454.539062 94.574219 C 454.785156 94.945312 455.1875 95.144531 455.605469 95.144531 Z M 463.105469 90.699219 C 463.347656 91.074219 463.75 91.277344 464.167969 91.277344 C 464.40625 91.277344 464.652344 91.207031 464.867188 91.066406 C 465.457031 90.675781 465.621094 89.890625 465.230469 89.300781 C 450.675781 67.179688 463.953125 52.753906 464.53125 52.148438 C 465.011719 51.636719 464.996094 50.832031 464.488281 50.34375 C 463.976562 49.855469 463.171875 49.875 462.683594 50.386719 C 462.527344 50.546875 447.394531 66.832031 463.105469 90.699219 Z M 472.636719 84.28125 C 472.875 84.28125 473.121094 84.21875 473.339844 84.070312 C 473.925781 83.683594 474.089844 82.894531 473.703125 82.304688 C 464.617188 68.5 472.84375 59.519531 473.203125 59.140625 C 473.6875 58.632812 473.667969 57.824219 473.164062 57.339844 C 472.652344 56.851562 471.847656 56.871094 471.359375 57.378906 C 471.257812 57.484375 461.339844 68.152344 471.574219 83.707031 C 471.816406 84.082031 472.226562 84.28125 472.636719 84.28125 Z M 97.339844 461.148438 L 33.234375 461.148438 L 37.921875 465.875 L 92.652344 465.875 Z M 99.847656 387.871094 C 99.847656 384.351562 96.992188 381.496094 93.46875 381.496094 C 89.949219 381.496094 87.09375 384.351562 87.09375 387.871094 L 87.09375 409.191406 L 78.738281 409.191406 L 78.738281 375.511719 C 78.738281 370.714844 74.851562 366.820312 70.046875 366.820312 L 61.683594 366.820312 C 56.878906 366.820312 52.992188 370.714844 52.992188 375.511719 L 52.992188 423.042969 L 46.257812 423.042969 L 46.257812 401.71875 C 46.257812 398.195312 43.402344 395.34375 39.882812 395.34375 C 36.363281 395.34375 33.503906 398.195312 33.503906 401.71875 L 33.503906 423.539062 C 33.503906 430.296875 39.003906 435.792969 45.765625 435.792969 L 52.992188 435.792969 L 52.992188 454.601562 L 78.738281 454.601562 L 78.738281 421.945312 L 87.585938 421.945312 C 94.347656 421.945312 99.847656 416.445312 99.847656 409.6875 Z M 514.820312 458.585938 L 514.820312 484.226562 L 518.691406 484.226562 C 519.351562 484.226562 519.941406 483.808594 520.160156 483.183594 L 523.808594 472.890625 C 525.308594 468.667969 525.539062 464.132812 524.476562 459.777344 C 524.308594 459.078125 523.683594 458.585938 522.960938 458.585938 Z M 514.820312 452.210938 L 522.960938 452.210938 C 526.628906 452.210938 529.800781 454.703125 530.671875 458.269531 C 532.027344 463.835938 531.730469 469.628906 529.820312 475.023438 L 526.171875 485.316406 C 525.046875 488.480469 522.042969 490.601562 518.691406 490.601562 L 514.820312 490.601562 L 514.820312 504.480469 C 514.820312 506.996094 512.777344 509.035156 510.269531 509.035156 L 472.847656 509.035156 C 470.332031 509.035156 468.296875 506.996094 468.296875 504.480469 L 468.296875 448.679688 L 514.820312 448.679688 Z M 304.945312 439.746094 C 304.945312 432.097656 297.625 425.890625 288.59375 425.890625 C 279.5625 425.890625 272.242188 432.097656 272.242188 439.746094 C 272.242188 447.402344 279.5625 453.605469 288.59375 453.605469 C 297.625 453.605469 304.945312 447.402344 304.945312 439.746094 Z M 362.796875 378.691406 C 363.335938 364.058594 368.789062 352.800781 369.039062 352.300781 C 369.347656 351.667969 370.109375 351.40625 370.75 351.714844 C 371.375 352.027344 371.636719 352.792969 371.328125 353.421875 C 371.269531 353.539062 365.910156 364.632812 365.351562 378.691406 L 370.148438 378.691406 C 373.492188 378.691406 376.175781 381.460938 376.066406 384.804688 L 372.542969 491.3125 C 372.4375 494.507812 369.820312 497.035156 366.625 497.035156 L 205.734375 497.035156 C 202.542969 497.035156 199.925781 494.507812 199.820312 491.3125 L 196.296875 384.804688 C 196.191406 381.460938 198.867188 378.691406 202.21875 378.691406 L 211.082031 378.691406 C 211.414062 371.921875 206.761719 361.695312 206.714844 361.59375 C 206.421875 360.953125 206.695312 360.195312 207.339844 359.902344 C 207.980469 359.605469 208.734375 359.886719 209.03125 360.523438 C 209.234375 360.980469 213.929688 371.292969 213.632812 378.691406 L 284.273438 378.691406 L 283.957031 355.710938 C 283.921875 353.453125 285.136719 351.363281 287.117188 350.269531 L 289.304688 349.066406 L 275.316406 342.316406 C 272.730469 341.003906 270.464844 339.585938 268.53125 341.53125 L 261.898438 348.191406 C 260.65625 349.4375 258.527344 348.585938 258.492188 346.824219 L 258.03125 324.46875 C 257.5625 320.5625 266.183594 303.636719 266.183594 303.636719 C 266.183594 303.636719 270.367188 331.257812 289.90625 348.734375 L 294.144531 346.402344 C 313.207031 330.964844 316.855469 301.894531 316.855469 301.894531 C 316.855469 301.894531 324.410156 318.210938 323.980469 322.117188 L 325.238281 342.152344 C 325.351562 343.929688 323.347656 345.039062 321.902344 344 L 320.269531 342.828125 C 317.136719 340.570312 312.492188 340.050781 308.632812 341.511719 L 297.300781 346.144531 L 297.300781 378.691406 Z M 592.335938 509.320312 L 372.945312 509.320312 L 373.949219 501.207031 C 374.238281 500.085938 373.394531 498.996094 372.238281 498.996094 L 195.875 498.996094 C 194.21875 498.996094 193.007812 500.558594 193.425781 502.167969 L 194.21875 509.320312 L 83.898438 509.320312 L 85.542969 505.460938 L 43.460938 505.460938 L 45.109375 509.320312 L 7.703125 509.320312 C 3.558594 509.320312 0.199219 512.679688 0.199219 516.824219 L 0.199219 526.980469 C 0.199219 531.125 3.558594 534.484375 7.703125 534.484375 L 50 534.484375 L 50 569.953125 L 548.414062 569.953125 L 548.414062 534.484375 L 592.335938 534.484375 C 596.480469 534.484375 599.835938 531.125 599.835938 526.980469 L 599.835938 516.824219 C 599.835938 512.679688 596.480469 509.320312 592.335938 509.320312 Z M 295.289062 286.085938 C 298.050781 285.082031 294.089844 277.320312 292.050781 273.691406 C 291.605469 272.898438 290.515625 272.972656 290.1875 273.8125 C 288.828125 277.332031 286.152344 284.421875 286.175781 285.820312 C 286.203125 287.695312 291.671875 287.402344 295.289062 286.085938 Z M 277.121094 262.125 C 275.816406 262.125 274.757812 263.746094 274.757812 265.746094 C 274.757812 267.746094 275.816406 269.367188 277.121094 269.367188 C 278.429688 269.367188 279.488281 267.746094 279.488281 265.746094 C 279.488281 263.746094 278.429688 262.125 277.121094 262.125 Z M 306.859375 262.125 C 305.550781 262.125 304.488281 263.746094 304.488281 265.746094 C 304.488281 267.746094 305.550781 269.367188 306.859375 269.367188 C 308.160156 269.367188 309.21875 267.746094 309.21875 265.746094 C 309.21875 263.746094 308.160156 262.125 306.859375 262.125 Z M 289.859375 327.527344 C 294.324219 328.886719 312.980469 310.140625 316.515625 302.289062 C 311.554688 308.300781 303.292969 311.398438 293.960938 311.398438 L 287.628906 311.398438 C 279.492188 311.398438 272.171875 309.042969 267.132812 304.457031 C 273.445312 311.859375 286.191406 326.402344 289.859375 327.527344 Z M 263.542969 300.191406 C 263.542969 300.191406 263.570312 300.226562 263.621094 300.289062 C 263.597656 300.253906 263.582031 300.222656 263.558594 300.191406 Z M 448.109375 129.171875 C 448.109375 131.050781 449.632812 132.574219 451.511719 132.574219 C 453.390625 132.574219 454.914062 131.050781 454.914062 129.171875 C 454.914062 127.292969 453.390625 125.773438 451.511719 125.773438 C 449.632812 125.773438 448.109375 127.292969 448.109375 129.171875 Z M 461.375 129.171875 C 461.375 131.050781 462.902344 132.574219 464.777344 132.574219 C 466.660156 132.574219 468.183594 131.050781 468.183594 129.171875 C 468.183594 127.292969 466.660156 125.773438 464.777344 125.773438 C 462.902344 125.773438 461.375 127.292969 461.375 129.171875 Z M 474.863281 129.171875 C 474.863281 131.050781 476.390625 132.574219 478.269531 132.574219 C 480.148438 132.574219 481.667969 131.050781 481.667969 129.171875 C 481.667969 127.292969 480.148438 125.773438 478.269531 125.773438 C 476.390625 125.773438 474.863281 127.292969 474.863281 129.171875 Z M 413.207031 129.171875 C 413.207031 127.292969 411.683594 125.773438 409.804688 125.773438 C 407.929688 125.773438 406.40625 127.292969 406.40625 129.171875 C 406.40625 131.050781 407.929688 132.574219 409.804688 132.574219 C 411.683594 132.574219 413.207031 131.050781 413.207031 129.171875 Z M 393.011719 138.554688 L 389.757812 138.554688 L 389.757812 118.867188 L 393.011719 118.867188 L 393.011719 114.117188 C 393.011719 113.269531 393.703125 112.585938 394.542969 112.585938 L 412.664062 112.585938 L 446.21875 104.214844 C 447.390625 103.917969 448.578125 104.632812 448.871094 105.800781 L 449.429688 108.046875 C 449.722656 109.21875 449.011719 110.402344 447.839844 110.699219 L 440.269531 112.585938 L 478.328125 112.585938 L 478.328125 67.382812 C 478.328125 66.171875 479.308594 65.195312 480.511719 65.195312 L 482.828125 65.195312 C 484.035156 65.195312 485.015625 66.171875 485.015625 67.382812 L 485.015625 112.585938 L 496.90625 112.585938 C 497.75 112.585938 498.441406 113.269531 498.441406 114.117188 L 498.441406 118.867188 L 501.453125 118.867188 L 501.453125 138.554688 L 498.441406 138.554688 L 498.441406 144.230469 C 498.441406 145.078125 497.75 145.761719 496.90625 145.761719 L 394.542969 145.761719 C 393.703125 145.761719 393.011719 145.078125 393.011719 144.230469 Z M 200.449219 140.710938 L 316.304688 140.710938 L 316.304688 72.289062 L 200.449219 72.289062 Z M 319.328125 106.5 C 319.328125 108.480469 320.9375 110.09375 322.921875 110.09375 C 324.902344 110.09375 326.511719 108.480469 326.511719 106.5 C 326.511719 104.519531 324.902344 102.914062 322.921875 102.914062 C 320.9375 102.914062 319.328125 104.519531 319.328125 106.5 Z M 185.957031 140.730469 L 185.957031 72.273438 C 185.957031 68.308594 189.171875 65.101562 193.136719 65.101562 L 323.683594 65.101562 C 327.648438 65.101562 330.855469 68.308594 330.855469 72.273438 L 330.855469 140.730469 C 330.855469 144.691406 327.648438 147.902344 323.683594 147.902344 L 193.136719 147.902344 C 189.171875 147.902344 185.957031 144.691406 185.957031 140.730469 Z M 16.722656 227.550781 L 16.722656 229.714844 L 18.886719 229.714844 L 18.886719 227.550781 Z M 22.941406 227.550781 L 22.941406 229.714844 L 25.105469 229.714844 L 25.105469 227.550781 Z M 70.484375 215.664062 C 70.484375 214.449219 69.9375 213.621094 68.835938 213.1875 C 69.804688 212.582031 70.292969 211.785156 70.292969 210.792969 C 70.292969 209.875 69.960938 209.121094 69.292969 208.523438 C 68.628906 207.925781 67.539062 207.632812 66.019531 207.632812 L 63.421875 207.632812 L 63.421875 218.921875 L 66.765625 218.921875 C 67.882812 218.921875 68.785156 218.621094 69.464844 218.023438 C 70.148438 217.425781 70.484375 216.640625 70.484375 215.664062 Z M 61.828125 207.632812 L 55.714844 207.632812 L 55.714844 210.207031 L 57.464844 210.207031 L 57.464844 218.921875 L 60.0625 218.921875 L 60.0625 210.207031 L 61.828125 210.207031 Z M 52.558594 207.632812 L 48.679688 207.632812 L 48.679688 210 L 50.117188 210 L 50.117188 218.921875 L 52.558594 218.921875 Z M 104.574219 292.453125 L 94.273438 292.453125 C 94.394531 292.648438 94.480469 292.863281 94.480469 293.113281 L 94.480469 309.125 C 94.480469 313.023438 92.949219 316.675781 90.171875 319.402344 C 87.457031 322.074219 83.882812 323.539062 80.082031 323.539062 C 79.992188 323.539062 79.910156 323.53125 79.820312 323.53125 L 34.363281 322.746094 C 26.679688 322.613281 20.464844 316.492188 20.210938 308.808594 L 19.878906 252.140625 L 15.273438 252.140625 C 14.472656 252.140625 13.820312 251.492188 13.820312 250.691406 L 13.820312 234.003906 L 20.46875 234.003906 L 20.46875 227.550781 L 21.707031 227.550781 L 21.707031 234.003906 L 28.351562 234.003906 L 28.351562 250.691406 C 28.351562 251.492188 27.703125 252.140625 26.90625 252.140625 L 22.425781 252.140625 L 22.761719 308.757812 C 22.964844 315.050781 28.082031 320.085938 34.40625 320.191406 L 79.867188 320.984375 C 83.050781 321.027344 86.097656 319.832031 88.382812 317.582031 C 90.667969 315.335938 91.929688 312.332031 91.929688 309.125 L 91.929688 293.113281 C 91.929688 292.863281 92.023438 292.648438 92.140625 292.453125 L 44.804688 292.453125 C 42.355469 292.453125 40.363281 290.464844 40.363281 288.011719 L 40.363281 206.199219 C 40.363281 203.75 42.355469 201.757812 44.804688 201.757812 L 104.574219 201.757812 C 107.027344 201.757812 109.011719 203.75 109.011719 206.199219 L 109.011719 288.011719 C 109.011719 290.464844 107.027344 292.453125 104.574219 292.453125 Z M 66.191406 214.277344 L 65.976562 214.277344 L 65.976562 216.722656 C 66.628906 216.710938 67.113281 216.613281 67.4375 216.417969 C 67.761719 216.230469 67.921875 215.921875 67.921875 215.488281 C 67.921875 214.679688 67.347656 214.277344 66.191406 214.277344 Z M 67.695312 211.042969 C 67.695312 210.582031 67.554688 210.265625 67.285156 210.085938 C 67.011719 209.902344 66.578125 209.808594 65.976562 209.796875 L 65.976562 212.230469 C 67.121094 212.203125 67.695312 211.804688 67.695312 211.042969 Z M 24.324219 145.328125 C 25.214844 145.929688 26.320312 146.117188 27.359375 145.839844 L 29.429688 145.289062 C 29.375 145.160156 29.316406 145.039062 29.277344 144.898438 L 15.203125 94.929688 C 15.175781 94.839844 15.171875 94.746094 15.15625 94.664062 L 13.011719 95.359375 C 12.3125 95.589844 11.695312 96.007812 11.253906 96.59375 C 9.417969 99.011719 5.488281 106.511719 9.828125 123 C 13.429688 136.695312 21.074219 143.128906 24.324219 145.328125 Z M 42.210938 141.257812 C 42.261719 141.457031 42.292969 141.648438 42.308594 141.84375 L 43.074219 141.636719 C 45.070312 141.105469 46.242188 139.035156 45.667969 137.046875 L 32.898438 92.878906 C 32.316406 90.875 30.1875 89.746094 28.203125 90.394531 L 27.785156 90.53125 C 27.925781 90.765625 28.054688 91.015625 28.132812 91.285156 Z M 104.003906 146.613281 L 106.074219 147.164062 C 107.117188 147.441406 108.222656 147.253906 109.113281 146.648438 C 112.363281 144.453125 120.007812 138.023438 123.609375 124.324219 C 127.949219 107.835938 124.023438 100.335938 122.1875 97.917969 C 121.742188 97.332031 121.121094 96.917969 120.425781 96.6875 L 118.277344 95.988281 C 118.265625 96.078125 118.261719 96.167969 118.230469 96.253906 L 104.160156 146.230469 C 104.117188 146.363281 104.0625 146.488281 104.003906 146.613281 Z M 87.769531 138.375 L 100.539062 94.203125 C 101.121094 92.199219 103.246094 91.074219 105.234375 91.722656 L 105.648438 91.855469 C 105.507812 92.089844 105.382812 92.339844 105.308594 92.617188 L 91.226562 142.585938 C 91.175781 142.78125 91.140625 142.976562 91.128906 143.167969 L 90.359375 142.964844 C 88.363281 142.429688 87.195312 140.359375 87.769531 138.375 " fill-opacity="1" fill-rule="nonzero"/></g></svg>